<svg width="96" height="96" viewBox="0 0 96 96" fill="none" xmlns="http://www.w3.org/2000/svg">
<rect width="96" height="96" rx="48" fill="#F1F1F1"/>
<rect x="8" y="8" width="80" height="80" rx="40" fill="#27A6E5"/>
<path d="M64 33.2045L57.9892 64.5845C57.9892 64.5845 57.1481 66.7602 54.8378 65.7168L40.9692 54.7052L40.9048 54.6727C42.7782 52.9308 57.3048 39.4053 57.9397 38.7922C58.9225 37.8427 58.3124 37.2775 57.1712 37.9947L35.7136 52.1059L27.4353 49.2215C27.4353 49.2215 26.1325 48.7417 26.0072 47.6982C25.8802 46.6531 27.4782 46.0878 27.4782 46.0878L61.2263 32.3779C61.2263 32.3779 64 31.1159 64 33.2045Z" fill="white"/>
</svg>
