<svg width="97" height="32" viewBox="0 0 97 32" fill="none" xmlns="http://www.w3.org/2000/svg">
<path d="M75.0088 26V6H88.4853V9.48633H79.2373V14.252H87.792V17.7383H79.2373V22.5137H88.5244V26H75.0088Z" fill="#023D67"/>
<path d="M59.5449 26V6H73.0215V9.48633H63.7734V14.252H72.3281V17.7383H63.7734V22.5137H73.0605V26H59.5449Z" fill="#023D67"/>
<path d="M42.873 26V6H50.7637C52.2741 6 53.5631 6.27018 54.6309 6.81055C55.7051 7.3444 56.5221 8.10286 57.082 9.08594C57.6484 10.0625 57.9316 11.2116 57.9316 12.5332C57.9316 13.8613 57.6452 15.0039 57.0723 15.9609C56.4993 16.9115 55.6693 17.6406 54.582 18.1484C53.5013 18.6563 52.1927 18.9102 50.6562 18.9102H45.373V15.5117H49.9727C50.7799 15.5117 51.4505 15.401 51.9844 15.1797C52.5182 14.9583 52.9154 14.6263 53.1758 14.1836C53.4427 13.7409 53.5762 13.1908 53.5762 12.5332C53.5762 11.8691 53.4427 11.3092 53.1758 10.8535C52.9154 10.3978 52.515 10.0527 51.9746 9.81836C51.4408 9.57747 50.7669 9.45703 49.9531 9.45703H47.1016V26H42.873ZM53.6738 16.8984L58.6445 26H53.9766L49.1133 16.8984H53.6738Z" fill="#023D67"/>
<path d="M28.1611 26V6H41.4033V9.48633H32.3896V14.252H40.5244V17.7383H32.3896V26H28.1611Z" fill="#023D67"/>
<path d="M16.9258 6V26H12.6973V10.0137H12.5801L8 12.8848V9.13477L12.9512 6H16.9258Z" fill="#023D67"/>
</svg>
