<svg width="24" height="24" viewBox="0 0 24 24" fill="none" xmlns="http://www.w3.org/2000/svg">
<path d="M15.7643 13.797C15.9563 14.055 16.1753 14.256 16.4212 14.4C16.6733 14.544 16.9552 14.616 17.2673 14.616C17.4773 14.616 17.6632 14.571 17.8253 14.481C17.9932 14.385 18.1252 14.256 18.2213 14.094C18.3172 13.932 18.3652 13.749 18.3652 13.545C18.3652 13.341 18.3202 13.164 18.2302 13.014C18.1462 12.858 18.0262 12.738 17.8703 12.654C17.7143 12.564 17.5343 12.519 17.3302 12.519C17.1203 12.519 16.9283 12.564 16.7542 12.654C16.5802 12.738 16.4303 12.867 16.3043 13.041L15.8182 13.014C15.8602 12.69 15.9592 12.399 16.1152 12.141C16.2712 11.883 16.4812 11.679 16.7453 11.529C17.0152 11.379 17.3302 11.304 17.6903 11.304C18.1222 11.304 18.5033 11.4 18.8333 11.592C19.1632 11.784 19.4183 12.048 19.5983 12.384C19.7843 12.72 19.8773 13.107 19.8773 13.545C19.8773 14.007 19.7633 14.415 19.5353 14.769C19.3133 15.123 19.0103 15.399 18.6263 15.597C18.2423 15.795 17.8103 15.894 17.3302 15.894C16.8202 15.894 16.3523 15.804 15.9263 15.624C15.5003 15.444 15.1193 15.162 14.7833 14.778L15.7643 13.797ZM19.5533 10.539H15.9802L16.7272 9.666L16.3043 13.041H14.9993L15.4672 9.315H19.5533V10.539Z" fill="#023D67"/>
<path d="M11.6375 15.894C11.1335 15.894 10.6865 15.786 10.2965 15.57C9.90647 15.354 9.60047 15.057 9.37847 14.679C9.16247 14.301 9.05447 13.869 9.05447 13.383C9.05447 12.831 9.16847 12.321 9.39647 11.853C9.63047 11.385 9.93347 10.944 10.3055 10.53C10.6835 10.11 11.0885 9.705 11.5205 9.315H13.5005C13.0085 9.717 12.5885 10.077 12.2405 10.395C11.8985 10.713 11.6135 11.001 11.3855 11.259C11.1635 11.517 10.9865 11.763 10.8545 11.997L10.7375 11.979C10.8875 11.799 11.0675 11.658 11.2775 11.556C11.4875 11.448 11.7305 11.394 12.0065 11.394C12.4625 11.394 12.8585 11.487 13.1945 11.673C13.5305 11.859 13.7915 12.114 13.9775 12.438C14.1695 12.762 14.2655 13.134 14.2655 13.554C14.2655 14.022 14.1515 14.433 13.9235 14.787C13.6955 15.135 13.3835 15.408 12.9875 15.606C12.5915 15.798 12.1415 15.894 11.6375 15.894ZM11.6465 14.652C11.8745 14.652 12.0725 14.607 12.2405 14.517C12.4085 14.421 12.5405 14.295 12.6365 14.139C12.7325 13.977 12.7805 13.797 12.7805 13.599C12.7805 13.395 12.7325 13.215 12.6365 13.059C12.5405 12.903 12.4085 12.78 12.2405 12.69C12.0725 12.594 11.8745 12.546 11.6465 12.546C11.4305 12.546 11.2385 12.594 11.0705 12.69C10.9025 12.78 10.7705 12.903 10.6745 13.059C10.5785 13.215 10.5305 13.395 10.5305 13.599C10.5305 13.797 10.5785 13.977 10.6745 14.139C10.7705 14.295 10.9025 14.421 11.0705 14.517C11.2385 14.607 11.4305 14.652 11.6465 14.652Z" fill="#023D67"/>
<path d="M3.189 14.868L4.17 13.887C4.362 14.127 4.584 14.31 4.836 14.436C5.088 14.556 5.364 14.616 5.664 14.616C5.994 14.616 6.267 14.547 6.483 14.409C6.699 14.271 6.807 14.07 6.807 13.806C6.807 13.65 6.759 13.518 6.663 13.41C6.573 13.296 6.447 13.212 6.285 13.158C6.123 13.098 5.931 13.068 5.709 13.068H5.142V11.817H5.709C5.895 11.817 6.054 11.79 6.186 11.736C6.324 11.676 6.432 11.598 6.51 11.502C6.588 11.4 6.627 11.289 6.627 11.169C6.627 10.935 6.543 10.758 6.375 10.638C6.207 10.512 5.994 10.449 5.736 10.449C5.454 10.449 5.196 10.512 4.962 10.638C4.734 10.758 4.53 10.938 4.35 11.178L3.369 10.197C3.681 9.861 4.044 9.606 4.458 9.432C4.878 9.258 5.325 9.171 5.799 9.171C6.279 9.171 6.699 9.255 7.059 9.423C7.419 9.585 7.698 9.804 7.896 10.08C8.094 10.35 8.193 10.653 8.193 10.989C8.193 11.295 8.103 11.562 7.923 11.79C7.743 12.018 7.491 12.195 7.167 12.321C6.849 12.447 6.477 12.51 6.051 12.51L6.321 12.177C6.729 12.177 7.086 12.249 7.392 12.393C7.698 12.537 7.938 12.738 8.112 12.996C8.286 13.254 8.373 13.554 8.373 13.896C8.373 14.274 8.262 14.613 8.04 14.913C7.818 15.213 7.509 15.453 7.113 15.633C6.717 15.807 6.255 15.894 5.727 15.894C5.235 15.894 4.77 15.807 4.332 15.633C3.894 15.459 3.513 15.204 3.189 14.868Z" fill="#023D67"/>
<path fill-rule="evenodd" clip-rule="evenodd" d="M12 22.5C17.799 22.5 22.5 17.799 22.5 12C22.5 6.20101 17.799 1.5 12 1.5C6.20101 1.5 1.5 6.20101 1.5 12C1.5 17.799 6.20101 22.5 12 22.5ZM12 24C18.6274 24 24 18.6274 24 12C24 5.37258 18.6274 0 12 0C5.37258 0 0 5.37258 0 12C0 18.6274 5.37258 24 12 24Z" fill="#023D67"/>
</svg>
