<svg width="16" height="16" viewBox="0 0 16 16" fill="none" xmlns="http://www.w3.org/2000/svg">
<g clip-path="url(#clip0_796_226)">
<path fill-rule="evenodd" clip-rule="evenodd" d="M8 15C9.85652 15 11.637 14.2625 12.9497 12.9497C14.2625 11.637 15 9.85652 15 8C15 6.14348 14.2625 4.36301 12.9497 3.05025C11.637 1.7375 9.85652 1 8 1C6.14348 1 4.36301 1.7375 3.05025 3.05025C1.7375 4.36301 1 6.14348 1 8C1 9.85652 1.7375 11.637 3.05025 12.9497C4.36301 14.2625 6.14348 15 8 15ZM8 16C10.1217 16 12.1566 15.1571 13.6569 13.6569C15.1571 12.1566 16 10.1217 16 8C16 5.87827 15.1571 3.84344 13.6569 2.34315C12.1566 0.842855 10.1217 0 8 0C5.87827 0 3.84344 0.842855 2.34315 2.34315C0.842855 3.84344 0 5.87827 0 8C0 10.1217 0.842855 12.1566 2.34315 13.6569C3.84344 15.1571 5.87827 16 8 16Z" fill="black"/>
<path d="M11.8538 4.85378C11.9449 4.75948 11.9953 4.63318 11.9941 4.50208C11.993 4.37099 11.9404 4.24558 11.8477 4.15288C11.755 4.06017 11.6296 4.00759 11.4985 4.00645C11.3674 4.00531 11.2411 4.05571 11.1468 4.14678L7.99978 7.29278L4.85378 4.14678C4.80766 4.09903 4.75249 4.06094 4.69149 4.03473C4.63049 4.00853 4.56488 3.99474 4.49849 3.99416C4.4321 3.99358 4.36626 4.00623 4.30481 4.03137C4.24336 4.05651 4.18753 4.09364 4.14059 4.14059C4.09364 4.18753 4.05651 4.24336 4.03137 4.30481C4.00623 4.36626 3.99358 4.4321 3.99416 4.49849C3.99474 4.56488 4.00853 4.63049 4.03473 4.69149C4.06094 4.75249 4.09903 4.80766 4.14678 4.85378L7.29278 7.99978L4.14678 11.1458C4.0529 11.2395 4.0001 11.3667 4.00001 11.4994C3.99991 11.6321 4.05253 11.7594 4.14628 11.8533C4.24004 11.9472 4.36725 12 4.49993 12.0001C4.63261 12.0002 4.7599 11.9475 4.85378 11.8538L7.99978 8.70678L11.1468 11.8538C11.2407 11.9475 11.368 12.0002 11.5006 12.0001C11.6333 12 11.7605 11.9472 11.8543 11.8533C11.948 11.7594 12.0007 11.6321 12.0006 11.4994C12.0005 11.3667 11.9477 11.2395 11.8538 11.1458L8.70779 7.99978L11.8538 4.85378Z" fill="black"/>
</g>
<defs>
<clipPath id="clip0_796_226">
<rect width="16" height="16" fill="white"/>
</clipPath>
</defs>
</svg>
