<svg width="27" height="25" viewBox="0 0 27 25" fill="none" xmlns="http://www.w3.org/2000/svg">
<path d="M23.8461 2L21.5382 4.20761M21.5382 4.20761L25 7.51904L20.9613 11.3824L17.4995 8.07094M21.5382 4.20761L17.4995 8.07094M12.7568 12.6076C13.3526 13.1699 13.8263 13.8395 14.1505 14.5777C14.4747 15.3158 14.643 16.1081 14.6458 16.9087C14.6486 17.7094 14.4858 18.5027 14.1668 19.2429C13.8478 19.9831 13.3789 20.6557 12.787 21.2219C12.1951 21.788 11.492 22.2366 10.7182 22.5418C9.94433 22.8469 9.11502 23.0026 8.278 23C7.44098 22.9973 6.61278 22.8362 5.84109 22.5261C5.0694 22.216 4.36946 21.7629 3.78157 21.193C2.62548 20.048 1.98578 18.5145 2.00024 16.9227C2.0147 15.3309 2.68217 13.8082 3.85888 12.6826C5.03559 11.557 6.6274 10.9186 8.29146 10.9047C9.95552 10.8909 11.5587 11.5028 12.7557 12.6087L12.7568 12.6076ZM12.7568 12.6076L17.4995 8.07094" stroke="black" stroke-width="4" stroke-linecap="round" stroke-linejoin="round"/>
</svg>
