<svg width="200" height="48" viewBox="0 0 200 48" fill="none" xmlns="http://www.w3.org/2000/svg">
<g id="Logo">
<g id="Vector">
<path d="M200 23.4465H196.417V14.3214C196.417 12.9061 196.097 11.85 195.457 11.1529C194.817 10.4559 193.953 10.1073 192.866 10.1073C192.076 10.1073 191.33 10.308 190.626 10.7094C189.944 11.1107 189.389 11.7444 188.962 12.6104C188.536 13.4765 188.323 14.596 188.323 15.969V23.4465H184.739V7.63596H188.291V12.5154H187.811C188.024 11.1213 188.44 10.044 189.058 9.28355C189.677 8.502 190.402 7.9528 191.234 7.63596C192.066 7.29799 192.919 7.12901 193.793 7.12901C195.713 7.12901 197.227 7.70989 198.336 8.87165C199.445 10.0334 200 11.7233 200 13.9412V23.4465Z" fill="url(#paint0_linear_1931_1328)"/>
<path d="M180.343 23.4465H177.048V20.3097L176.888 19.6444V13.7194C176.888 12.5365 176.504 11.6176 175.736 10.9628C174.969 10.2869 173.924 9.94893 172.601 9.94893C171.641 9.94893 170.746 10.139 169.914 10.5192C169.103 10.8995 168.399 11.4275 167.802 12.1035L165.755 9.88556C166.629 9.01951 167.653 8.34358 168.826 7.85775C169.999 7.37192 171.3 7.12901 172.729 7.12901C174.243 7.12901 175.566 7.39304 176.696 7.92112C177.848 8.42807 178.744 9.16737 179.384 10.139C180.023 11.1107 180.343 12.2725 180.343 13.6243V23.4465ZM171.385 23.9535C170.17 23.9535 169.093 23.7317 168.154 23.2881C167.216 22.8445 166.491 22.2425 165.979 21.4821C165.467 20.7216 165.211 19.8345 165.211 18.8206C165.211 17.7222 165.531 16.7928 166.171 16.0323C166.811 15.2508 167.696 14.6594 168.826 14.258C169.978 13.8356 171.3 13.6243 172.793 13.6243H177.272V16.064H173.113C171.855 16.064 170.831 16.2858 170.042 16.7294C169.274 17.173 168.89 17.8278 168.89 18.6938C168.89 19.4754 169.189 20.0985 169.786 20.5632C170.383 21.0068 171.162 21.2286 172.121 21.2286C173.038 21.2286 173.881 21.0385 174.649 20.6583C175.417 20.2781 176.024 19.7605 176.472 19.1057C176.942 18.4298 177.208 17.6588 177.272 16.7928L178.424 17.3314C178.424 18.6199 178.125 19.7711 177.528 20.785C176.931 21.7778 176.099 22.5593 175.033 23.1297C173.966 23.6789 172.75 23.9535 171.385 23.9535Z" fill="url(#paint1_linear_1931_1328)"/>
<path d="M160.227 18.5988L162.53 20.8167C161.741 21.7884 160.771 22.5593 159.619 23.1297C158.467 23.6789 157.145 23.9535 155.652 23.9535C154.01 23.9535 152.538 23.5944 151.237 22.8762C149.957 22.1369 148.944 21.1441 148.198 19.8979C147.451 18.6305 147.078 17.173 147.078 15.5254C147.078 13.8989 147.451 12.4626 148.198 11.2163C148.944 9.94893 149.968 8.95614 151.269 8.23796C152.591 7.49866 154.084 7.12901 155.748 7.12901C157.198 7.12901 158.489 7.4036 159.619 7.9528C160.771 8.502 161.741 9.27299 162.53 10.2658L160.227 12.4837C159.758 11.7655 159.161 11.1952 158.435 10.7727C157.732 10.3291 156.878 10.1073 155.876 10.1073C154.895 10.1073 154.02 10.3397 153.253 10.8044C152.485 11.2691 151.888 11.9134 151.461 12.7372C151.034 13.5398 150.821 14.4692 150.821 15.5254C150.821 16.5815 151.034 17.5215 151.461 18.3453C151.888 19.1691 152.485 19.8134 153.253 20.2781C154.02 20.7428 154.895 20.9751 155.876 20.9751C156.878 20.9751 157.732 20.7533 158.435 20.3097C159.161 19.8662 159.758 19.2958 160.227 18.5988Z" fill="url(#paint2_linear_1931_1328)"/>
<path d="M123.999 19.7394L126.558 17.268C127.134 17.9862 127.817 18.6093 128.606 19.1374C129.416 19.6655 130.28 20.0668 131.197 20.3414C132.136 20.616 133.117 20.7533 134.141 20.7533C135.25 20.7533 136.21 20.6055 137.02 20.3097C137.852 20.014 138.502 19.5916 138.972 19.0424C139.441 18.4932 139.675 17.8595 139.675 17.1413C139.675 16.1696 139.227 15.3987 138.332 14.8283C137.457 14.258 135.911 13.8039 133.693 13.4659C131.624 13.1702 129.95 12.7477 128.67 12.1985C127.39 11.6493 126.452 10.9523 125.855 10.1073C125.279 9.26243 124.991 8.26965 124.991 7.12901C124.991 5.77713 125.364 4.59425 126.11 3.58034C126.878 2.54532 127.923 1.74265 129.246 1.17233C130.589 0.580882 132.125 0.28516 133.853 0.28516C135.858 0.28516 137.628 0.665374 139.164 1.4258C140.72 2.18623 142.054 3.20013 143.163 4.46751L140.667 6.9389C139.835 5.86163 138.854 5.01671 137.724 4.40414C136.615 3.77045 135.335 3.45361 133.885 3.45361C132.37 3.45361 131.133 3.77045 130.174 4.40414C129.214 5.03783 128.734 5.88275 128.734 6.9389C128.734 7.50922 128.915 7.99505 129.278 8.39639C129.64 8.7766 130.238 9.104 131.069 9.3786C131.922 9.6532 133.053 9.89612 134.461 10.1073C136.572 10.4242 138.278 10.8783 139.579 11.4698C140.902 12.0612 141.872 12.8111 142.491 13.7194C143.109 14.6277 143.419 15.7155 143.419 16.9829C143.419 18.377 143.024 19.6021 142.235 20.6583C141.446 21.6933 140.347 22.5065 138.94 23.098C137.532 23.6683 135.911 23.9535 134.077 23.9535C131.922 23.9535 130.003 23.5732 128.318 22.8128C126.633 22.0524 125.193 21.0279 123.999 19.7394Z" fill="url(#paint3_linear_1931_1328)"/>
<path d="M118.104 7.63596H121.719L113.945 25.6327C113.412 26.9212 112.718 27.9035 111.865 28.5794C111.012 29.2553 109.85 29.5933 108.378 29.5933H106.458V26.6466H108.218C108.879 26.6466 109.423 26.4882 109.85 26.1714C110.298 25.8757 110.649 25.4215 110.905 24.8089L111.449 23.4782L104.571 7.63596H108.314L113.817 21.4821H112.569L118.104 7.63596Z" fill="url(#paint4_linear_1931_1328)"/>
<path d="M102.48 23.4465H98.5452C97.2015 23.4465 96.1884 23.1085 95.5059 22.4326C94.8234 21.7355 94.4821 20.7322 94.4821 19.4226V3.29518H98.0653V18.8839C98.0653 19.4331 98.1933 19.845 98.4492 20.1196C98.7052 20.3731 99.1104 20.4999 99.6649 20.4999H102.48V23.4465ZM102.256 10.5192H91.5068V7.63596H102.256V10.5192Z" fill="url(#paint5_linear_1931_1328)"/>
<path d="M87.8179 23.4465H84.2347V7.63596H87.8179V23.4465ZM86.0263 4.37246C85.4078 4.37246 84.8745 4.16123 84.4266 3.73877C83.9787 3.31631 83.7548 2.80936 83.7548 2.21791C83.7548 1.58422 83.9787 1.05615 84.4266 0.633689C84.8745 0.21123 85.4078 0 86.0263 0C86.6661 0 87.1993 0.21123 87.6259 0.633689C88.0738 1.05615 88.2978 1.57366 88.2978 2.18623C88.2978 2.79879 88.0738 3.31631 87.6259 3.73877C87.1993 4.16123 86.6661 4.37246 86.0263 4.37246Z" fill="url(#paint6_linear_1931_1328)"/>
<path d="M74.2125 23.4465H70.7253L63.8788 7.63596H67.622L72.9967 21.1335H72.005L77.4117 7.63596H81.0269L74.2125 23.4465Z" fill="url(#paint7_linear_1931_1328)"/>
<path d="M60.6378 23.4465H57.0546V7.63596H60.6378V23.4465ZM58.8462 4.37246C58.2277 4.37246 57.6944 4.16123 57.2465 3.73877C56.7986 3.31631 56.5747 2.80936 56.5747 2.21791C56.5747 1.58422 56.7986 1.05615 57.2465 0.633689C57.6944 0.21123 58.2277 0 58.8462 0C59.486 0 60.0193 0.21123 60.4458 0.633689C60.8937 1.05615 61.1177 1.57366 61.1177 2.18623C61.1177 2.79879 60.8937 3.31631 60.4458 3.73877C60.0193 4.16123 59.486 4.37246 58.8462 4.37246Z" fill="url(#paint8_linear_1931_1328)"/>
<path d="M53.3064 23.4465H49.3713C48.0276 23.4465 47.0145 23.1085 46.332 22.4326C45.6495 21.7355 45.3083 20.7322 45.3083 19.4226V3.29518H48.8914V18.8839C48.8914 19.4331 49.0194 19.845 49.2754 20.1196C49.5313 20.3731 49.9365 20.4999 50.4911 20.4999H53.3064V23.4465ZM53.0825 10.5192H42.3329V7.63596H53.0825V10.5192Z" fill="url(#paint9_linear_1931_1328)"/>
<path d="M37.2911 18.5988L39.5945 20.8167C38.8054 21.7884 37.8349 22.5593 36.6832 23.1297C35.5315 23.6789 34.2091 23.9535 32.7161 23.9535C31.0738 23.9535 29.6021 23.5944 28.3011 22.8762C27.0214 22.1369 26.0083 21.1441 25.2618 19.8979C24.5153 18.6305 24.142 17.173 24.142 15.5254C24.142 13.8989 24.5153 12.4626 25.2618 11.2163C26.0083 9.94893 27.032 8.95614 28.3331 8.23796C29.6555 7.49866 31.1484 7.12901 32.8121 7.12901C34.2624 7.12901 35.5528 7.4036 36.6832 7.9528C37.8349 8.502 38.8054 9.27299 39.5945 10.2658L37.2911 12.4837C36.8218 11.7655 36.2246 11.1952 35.4995 10.7727C34.7956 10.3291 33.9425 10.1073 32.94 10.1073C31.9589 10.1073 31.0845 10.3397 30.3166 10.8044C29.5488 11.2691 28.9516 11.9134 28.525 12.7372C28.0985 13.5398 27.8852 14.4692 27.8852 15.5254C27.8852 16.5815 28.0985 17.5215 28.525 18.3453C28.9516 19.1691 29.5488 19.8134 30.3166 20.2781C31.0845 20.7428 31.9589 20.9751 32.94 20.9751C33.9425 20.9751 34.7956 20.7533 35.4995 20.3097C36.2246 19.8662 36.8218 19.2958 37.2911 18.5988Z" fill="url(#paint10_linear_1931_1328)"/>
<path d="M17.596 17.9968H4.415V14.8917H17.596V17.9968ZM22.139 23.4465H18.2359L10.3976 3.2635H11.6134L3.77515 23.4465H0L9.05395 0.792111H13.085L22.139 23.4465Z" fill="url(#paint11_linear_1931_1328)"/>
<path d="M159.977 42.0918L161.166 43.4553C160.736 43.9378 160.181 44.3193 159.501 44.5999C158.832 44.8692 158.09 45.0038 157.274 45.0038C156.288 45.0038 155.422 44.8131 154.674 44.4315C153.926 44.05 153.342 43.5226 152.923 42.8493C152.504 42.176 152.294 41.3961 152.294 40.5096C152.294 39.6231 152.493 38.8432 152.889 38.1699C153.297 37.4854 153.847 36.9523 154.538 36.5708C155.24 36.1893 156.028 35.9985 156.9 35.9985C157.75 35.9985 158.504 36.1893 159.161 36.5708C159.829 36.9411 160.351 37.4573 160.724 38.1194C161.098 38.7815 161.285 39.5501 161.285 40.4254V40.5264H159.093V40.2908C159.093 39.7746 158.997 39.3257 158.804 38.9442C158.623 38.5626 158.368 38.2653 158.039 38.0521C157.722 37.8389 157.342 37.7322 156.9 37.7322C156.436 37.7322 156.028 37.8445 155.677 38.0689C155.325 38.2821 155.048 38.5963 154.844 39.0115C154.651 39.4155 154.555 39.898 154.555 40.4591C154.555 41.0538 154.674 41.5644 154.912 41.9908C155.161 42.406 155.495 42.7259 155.915 42.9503C156.345 43.1635 156.838 43.2701 157.393 43.2701C158.413 43.2701 159.274 42.8773 159.977 42.0918ZM161.285 41.1829H153.739V39.769H161.013L161.285 40.4254V41.1829Z" fill="white"/>
<path d="M149.985 41.9403L151.379 43.2869C150.937 43.8368 150.399 44.2632 149.764 44.5662C149.141 44.858 148.427 45.0038 147.623 45.0038C146.739 45.0038 145.946 44.8131 145.243 44.4315C144.541 44.0388 143.986 43.5058 143.578 42.8325C143.181 42.1479 142.983 41.3736 142.983 40.5096C142.983 39.6343 143.187 38.86 143.595 38.1867C144.003 37.5022 144.558 36.9692 145.26 36.5876C145.974 36.1949 146.779 35.9985 147.674 35.9985C148.456 35.9985 149.158 36.15 149.781 36.453C150.405 36.7447 150.937 37.1599 151.379 37.6986L149.985 39.062C149.747 38.7029 149.442 38.4112 149.068 38.1867C148.705 37.9623 148.28 37.8501 147.793 37.8501C147.306 37.8501 146.875 37.9623 146.501 38.1867C146.127 38.4112 145.833 38.7254 145.617 39.1293C145.402 39.5333 145.294 39.9934 145.294 40.5096C145.294 41.0146 145.402 41.469 145.617 41.873C145.833 42.277 146.127 42.5912 146.501 42.8156C146.875 43.0401 147.306 43.1523 147.793 43.1523C148.291 43.1523 148.722 43.0401 149.085 42.8156C149.447 42.5912 149.747 42.2994 149.985 41.9403Z" fill="white"/>
<path d="M141.426 44.7345H139.183V39.8363C139.183 39.1742 139.03 38.6805 138.724 38.355C138.418 38.0184 138.004 37.8501 137.483 37.8501C137.12 37.8501 136.775 37.9455 136.446 38.1362C136.118 38.327 135.851 38.6244 135.647 39.0283C135.443 39.4323 135.341 39.9653 135.341 40.6274V44.7345H133.098V36.2678H135.324V38.8937H135.052C135.154 38.1418 135.364 37.5583 135.681 37.1431C136.01 36.7167 136.389 36.4193 136.82 36.251C137.262 36.0827 137.698 35.9985 138.129 35.9985C139.149 35.9985 139.953 36.3071 140.542 36.9243C141.131 37.5415 141.426 38.4392 141.426 39.6175V44.7345Z" fill="white"/>
<path d="M131.242 44.7345H129.202V43.0344L129.1 42.7651V39.5838C129.1 38.9891 128.907 38.529 128.522 38.2036C128.137 37.8781 127.61 37.7154 126.942 37.7154C126.454 37.7154 125.995 37.8108 125.565 38.0016C125.146 38.1811 124.777 38.4392 124.46 38.7759L123.287 37.4293C123.741 36.9804 124.29 36.6325 124.936 36.3857C125.582 36.1276 126.284 35.9985 127.044 35.9985C127.871 35.9985 128.602 36.1388 129.236 36.4193C129.871 36.6999 130.363 37.1038 130.715 37.6313C131.066 38.1474 131.242 38.7815 131.242 39.5333V44.7345ZM126.296 45.0038C125.639 45.0038 125.061 44.886 124.562 44.6504C124.064 44.4147 123.673 44.0893 123.389 43.6741C123.117 43.2589 122.981 42.7764 122.981 42.2265C122.981 41.643 123.151 41.1492 123.491 40.7452C123.831 40.33 124.313 40.0102 124.936 39.7858C125.571 39.5614 126.301 39.4492 127.129 39.4492H129.321V40.8967H127.298C126.687 40.8967 126.194 41.0033 125.82 41.2165C125.446 41.4298 125.259 41.7384 125.259 42.1423C125.259 42.5126 125.401 42.8044 125.684 43.0176C125.978 43.2308 126.358 43.3374 126.823 43.3374C127.265 43.3374 127.667 43.2477 128.029 43.0681C128.392 42.8773 128.687 42.6192 128.913 42.2938C129.14 41.9684 129.27 41.5981 129.304 41.1829L129.95 41.4859C129.95 42.1816 129.797 42.7932 129.491 43.3206C129.185 43.848 128.755 44.2632 128.199 44.5662C127.655 44.858 127.021 45.0038 126.296 45.0038Z" fill="white"/>
<path d="M121.361 44.7345H119.134V42.7315L119.117 42.6136V40.5601C119.117 39.999 119.015 39.5221 118.811 39.1293C118.607 38.7254 118.318 38.4112 117.944 38.1867C117.582 37.9623 117.163 37.8501 116.687 37.8501C116.211 37.8501 115.786 37.9623 115.412 38.1867C115.049 38.4112 114.766 38.7254 114.562 39.1293C114.37 39.5221 114.273 39.9822 114.273 40.5096C114.273 41.0146 114.381 41.469 114.596 41.873C114.811 42.277 115.106 42.5912 115.48 42.8156C115.854 43.0401 116.29 43.1523 116.789 43.1523C117.208 43.1523 117.593 43.0737 117.944 42.9166C118.296 42.7483 118.585 42.5183 118.811 42.2265C119.038 41.9235 119.179 41.5813 119.236 41.1997L119.729 41.5027C119.763 42.1423 119.638 42.7315 119.355 43.2701C119.083 43.7975 118.681 44.2183 118.148 44.5325C117.627 44.8467 116.993 45.0038 116.245 45.0038C115.452 45.0038 114.726 44.8131 114.069 44.4315C113.423 44.05 112.908 43.5226 112.523 42.8493C112.149 42.176 111.962 41.3961 111.962 40.5096C111.962 39.6119 112.149 38.8264 112.523 38.1531C112.908 37.4798 113.423 36.9523 114.069 36.5708C114.715 36.1893 115.435 35.9985 116.228 35.9985C116.885 35.9985 117.451 36.1219 117.927 36.3688C118.415 36.6157 118.806 36.958 119.1 37.3956C119.406 37.8332 119.593 38.3326 119.661 38.8937H119.117V32.6152H121.361V44.7345Z" fill="white"/>
<path d="M107.468 39.7858L105.752 42.1592C105.004 43.1691 104.245 43.8985 103.474 44.3474C102.715 44.785 101.848 45.0038 100.874 45.0038C100.013 45.0038 99.2594 44.8523 98.6135 44.5494C97.9676 44.2464 97.4691 43.8368 97.1178 43.3206C96.7666 42.7932 96.591 42.1928 96.591 41.5195C96.591 40.5994 96.9252 39.8195 97.5937 39.1798C98.2736 38.5402 99.3217 38.0184 100.738 37.6144L101.112 38.9442C100.319 39.2135 99.7466 39.5558 99.3953 39.971C99.0441 40.3749 98.8684 40.835 98.8684 41.3512C98.8684 41.8898 99.0611 42.3387 99.4463 42.6978C99.8316 43.0569 100.341 43.2364 100.976 43.2364C101.339 43.2364 101.684 43.1747 102.013 43.0513C102.353 42.9278 102.698 42.709 103.049 42.3948C103.412 42.0806 103.786 41.6374 104.171 41.0651L105.871 38.6749L107.468 39.7858ZM107.842 43.4721L106.5 44.9028L100.16 39.1462L99.8032 38.8769C99.282 38.4055 98.8741 37.9847 98.5795 37.6144C98.2849 37.2329 98.0696 36.8738 97.9337 36.5371C97.809 36.1893 97.7467 35.8302 97.7467 35.4599C97.7467 34.8988 97.9053 34.3882 98.2226 33.9281C98.5398 33.468 98.9591 33.1033 99.4803 32.834C100.013 32.5647 100.602 32.43 101.248 32.43C101.905 32.43 102.5 32.5703 103.033 32.8509C103.565 33.1202 103.984 33.4849 104.29 33.945C104.596 34.405 104.749 34.9212 104.749 35.4935C104.749 36.021 104.596 36.5091 104.29 36.958C103.996 37.3956 103.582 37.7827 103.049 38.1194C102.517 38.4448 101.905 38.7085 101.214 38.9105L100.806 37.5639C101.441 37.3732 101.928 37.1038 102.268 36.756C102.619 36.4081 102.795 36.0153 102.795 35.5777C102.795 35.1513 102.647 34.7978 102.353 34.5173C102.069 34.2255 101.707 34.0796 101.265 34.0796C100.868 34.0796 100.523 34.2199 100.228 34.5004C99.9335 34.7697 99.7862 35.1064 99.7862 35.5104C99.7862 35.7572 99.8372 36.0041 99.9392 36.251C100.052 36.4867 100.239 36.7447 100.5 37.0253C100.761 37.2946 101.118 37.6144 101.571 37.9847L101.945 38.2709L107.842 43.4721Z" fill="white"/>
<path d="M83.8383 43.4721L85.062 42.0918C85.4472 42.4734 85.9061 42.7764 86.4387 43.0008C86.9826 43.2252 87.5378 43.3374 88.1043 43.3374C88.6255 43.3374 89.0391 43.242 89.345 43.0513C89.6623 42.8605 89.8209 42.6249 89.8209 42.3443C89.8209 42.0526 89.6793 41.8393 89.396 41.7047C89.1241 41.5588 88.6142 41.4354 87.8664 41.3344C86.62 41.1548 85.7078 40.8687 85.13 40.4759C84.5521 40.0719 84.2632 39.5165 84.2632 38.8095C84.2632 38.2484 84.4218 37.7603 84.7391 37.3451C85.0563 36.9187 85.4982 36.5876 86.0648 36.352C86.6313 36.1163 87.2715 35.9985 87.9853 35.9985C88.8351 35.9985 89.583 36.1332 90.2288 36.4025C90.886 36.6718 91.4469 37.0253 91.9114 37.4629L90.6877 38.8432C90.3365 38.4841 89.9286 38.1979 89.464 37.9847C89.0108 37.7715 88.5235 37.6649 88.0023 37.6649C87.5151 37.6649 87.1242 37.7547 86.8296 37.9342C86.5463 38.1138 86.4047 38.3382 86.4047 38.6075C86.4047 38.8432 86.5463 39.0227 86.8296 39.1462C87.1129 39.2696 87.6114 39.3762 88.3252 39.466C89.549 39.6455 90.4668 39.9429 91.0786 40.3581C91.6905 40.7733 91.9964 41.3736 91.9964 42.1592C91.9964 42.7315 91.8265 43.2364 91.4865 43.6741C91.1466 44.1005 90.6764 44.4315 90.0759 44.6672C89.4867 44.8916 88.7955 45.0038 88.0023 45.0038C87.1525 45.0038 86.3707 44.8636 85.6569 44.583C84.943 44.3025 84.3368 43.9322 83.8383 43.4721Z" fill="white"/>
<path d="M82.8368 44.7345H80.6953C79.9248 44.7345 79.3413 44.5438 78.9447 44.1622C78.5595 43.7695 78.3668 43.1915 78.3668 42.4285V34.0291H80.6103V42.0413C80.6103 42.3443 80.6783 42.5688 80.8143 42.7146C80.9502 42.8493 81.1655 42.9166 81.4601 42.9166H82.8368V44.7345ZM82.7348 38.0521H76.8712V36.2678H82.7348V38.0521Z" fill="white"/>
<path d="M75.844 36.1163V38.1362H75.3851C74.8525 38.1362 74.3936 38.2428 74.0084 38.456C73.6231 38.658 73.3172 38.9778 73.0906 39.4155C72.8753 39.8531 72.7677 40.4198 72.7677 41.1156V44.7345H70.5242V36.2678H72.7507V39.0115H72.4787C72.5807 38.2597 72.7903 37.6761 73.1076 37.2609C73.4362 36.8457 73.8158 36.554 74.2463 36.3857C74.6882 36.2061 75.1188 36.1163 75.538 36.1163H75.844Z" fill="white"/>
<path d="M64.138 45.0038C63.2089 45.0038 62.3874 44.8131 61.6736 44.4315C60.9597 44.0388 60.4045 43.5058 60.0079 42.8325C59.6114 42.1479 59.4131 41.3736 59.4131 40.5096C59.4131 39.6231 59.6114 38.8432 60.0079 38.1699C60.4045 37.4966 60.9597 36.9692 61.6736 36.5876C62.3874 36.1949 63.2089 35.9985 64.138 35.9985C65.0671 35.9985 65.8886 36.1949 66.6024 36.5876C67.3163 36.9692 67.8715 37.4966 68.2681 38.1699C68.6646 38.8432 68.8629 39.6175 68.8629 40.4928C68.8629 41.368 68.6646 42.1479 68.2681 42.8325C67.8715 43.5058 67.3163 44.0388 66.6024 44.4315C65.8886 44.8131 65.0671 45.0038 64.138 45.0038ZM64.138 43.1523C64.6139 43.1523 65.0331 43.0401 65.3957 42.8156C65.7583 42.5912 66.0416 42.2826 66.2455 41.8898C66.4495 41.4859 66.5515 41.0258 66.5515 40.5096C66.5515 39.9822 66.4495 39.5221 66.2455 39.1293C66.0416 38.7254 65.7583 38.4112 65.3957 38.1867C65.0331 37.9623 64.6139 37.8501 64.138 37.8501C63.6621 37.8501 63.2429 37.9623 62.8803 38.1867C62.5177 38.4112 62.2344 38.7254 62.0305 39.1293C61.8265 39.5221 61.7245 39.9822 61.7245 40.5096C61.7245 41.0258 61.8265 41.4859 62.0305 41.8898C62.2344 42.2826 62.5177 42.5912 62.8803 42.8156C63.2429 43.0401 63.6621 43.1523 64.138 43.1523Z" fill="white"/>
<path d="M50.8918 48H48.6483V36.2678H50.8748V38.8937H50.3989C50.4782 38.3438 50.6651 37.8501 50.9597 37.4124C51.2657 36.9748 51.6622 36.6325 52.1495 36.3857C52.6367 36.1276 53.1919 35.9985 53.8151 35.9985C54.5969 35.9985 55.3108 36.1893 55.9566 36.5708C56.6025 36.9523 57.1123 37.4798 57.4863 38.1531C57.8715 38.8264 58.0641 39.6119 58.0641 40.5096C58.0641 41.3961 57.8715 42.176 57.4863 42.8493C57.101 43.5226 56.5855 44.05 55.9396 44.4315C55.2938 44.8131 54.5686 45.0038 53.7641 45.0038C53.0276 45.0038 52.3931 44.8467 51.8605 44.5325C51.328 44.2183 50.9257 43.7975 50.6538 43.2701C50.3819 42.7315 50.2629 42.1423 50.2969 41.5027L50.7728 41.1997C50.8294 41.5813 50.9711 41.9235 51.1977 42.2265C51.4243 42.5183 51.7132 42.7483 52.0645 42.9166C52.4271 43.0737 52.818 43.1523 53.2372 43.1523C53.7358 43.1523 54.172 43.0401 54.5459 42.8156C54.9198 42.5912 55.2088 42.277 55.4127 41.873C55.628 41.469 55.7357 41.0146 55.7357 40.5096C55.7357 39.9822 55.6337 39.5221 55.4297 39.1293C55.2371 38.7254 54.9595 38.4112 54.5969 38.1867C54.2457 37.9623 53.8264 37.8501 53.3392 37.8501C52.8633 37.8501 52.4384 37.9623 52.0645 38.1867C51.7019 38.4112 51.413 38.7254 51.1977 39.1293C50.9937 39.5221 50.8918 39.999 50.8918 40.5601V48Z" fill="white"/>
<path d="M38.8582 43.4721L40.0819 42.0918C40.4672 42.4734 40.9261 42.7764 41.4586 43.0008C42.0025 43.2252 42.5577 43.3374 43.1242 43.3374C43.6455 43.3374 44.059 43.242 44.365 43.0513C44.6822 42.8605 44.8409 42.6249 44.8409 42.3443C44.8409 42.0526 44.6992 41.8393 44.416 41.7047C44.144 41.5588 43.6341 41.4354 42.8863 41.3344C41.6399 41.1548 40.7278 40.8687 40.1499 40.4759C39.572 40.0719 39.2831 39.5165 39.2831 38.8095C39.2831 38.2484 39.4417 37.7603 39.759 37.3451C40.0763 36.9187 40.5182 36.5876 41.0847 36.352C41.6512 36.1163 42.2914 35.9985 43.0053 35.9985C43.8551 35.9985 44.6029 36.1332 45.2488 36.4025C45.9059 36.6718 46.4668 37.0253 46.9314 37.4629L45.7077 38.8432C45.3564 38.4841 44.9485 38.1979 44.4839 37.9847C44.0307 37.7715 43.5435 37.6649 43.0223 37.6649C42.535 37.6649 42.1441 37.7547 41.8495 37.9342C41.5663 38.1138 41.4246 38.3382 41.4246 38.6075C41.4246 38.8432 41.5663 39.0227 41.8495 39.1462C42.1328 39.2696 42.6314 39.3762 43.3452 39.466C44.5689 39.6455 45.4867 39.9429 46.0986 40.3581C46.7104 40.7733 47.0164 41.3736 47.0164 42.1592C47.0164 42.7315 46.8464 43.2364 46.5065 43.6741C46.1666 44.1005 45.6963 44.4315 45.0958 44.6672C44.5066 44.8916 43.8154 45.0038 43.0223 45.0038C42.1725 45.0038 41.3906 44.8636 40.6768 44.583C39.963 44.3025 39.3568 43.9322 38.8582 43.4721Z" fill="white"/>
</g>
</g>
<defs>
<linearGradient id="paint0_linear_1931_1328" x1="-2434.55" y1="13.0485" x2="225.298" y2="13.0485" gradientUnits="userSpaceOnUse">
<stop offset="0.3" stop-color="#FDF89D"/>
<stop offset="1" stop-color="#F97304"/>
</linearGradient>
<linearGradient id="paint1_linear_1931_1328" x1="-2197.04" y1="12.6554" x2="485.303" y2="12.6554" gradientUnits="userSpaceOnUse">
<stop offset="0.3" stop-color="#FDF89D"/>
<stop offset="1" stop-color="#F97304"/>
</linearGradient>
<linearGradient id="paint2_linear_1931_1328" x1="-1916.86" y1="12.6554" x2="709.947" y2="12.6554" gradientUnits="userSpaceOnUse">
<stop offset="0.3" stop-color="#FDF89D"/>
<stop offset="1" stop-color="#F97304"/>
</linearGradient>
<linearGradient id="paint3_linear_1931_1328" x1="-1287.59" y1="22.8755" x2="802.605" y2="22.8755" gradientUnits="userSpaceOnUse">
<stop offset="0.3" stop-color="#FDF89D"/>
<stop offset="1" stop-color="#F97304"/>
</linearGradient>
<linearGradient id="paint4_linear_1931_1328" x1="-1231.56" y1="8.58875" x2="1135.51" y2="8.58875" gradientUnits="userSpaceOnUse">
<stop offset="0.3" stop-color="#FDF89D"/>
<stop offset="1" stop-color="#F97304"/>
</linearGradient>
<linearGradient id="paint5_linear_1931_1328" x1="-1686.43" y1="19.6981" x2="2012.55" y2="19.6981" gradientUnits="userSpaceOnUse">
<stop offset="0.3" stop-color="#FDF89D"/>
<stop offset="1" stop-color="#F97304"/>
</linearGradient>
<linearGradient id="paint6_linear_1931_1328" x1="-3732.29" y1="23.6757" x2="5202.56" y2="23.6757" gradientUnits="userSpaceOnUse">
<stop offset="0.3" stop-color="#FDF89D"/>
<stop offset="1" stop-color="#F97304"/>
</linearGradient>
<linearGradient id="paint7_linear_1931_1328" x1="-756.964" y1="11.9279" x2="1610.11" y2="11.9279" gradientUnits="userSpaceOnUse">
<stop offset="0.3" stop-color="#FDF89D"/>
<stop offset="1" stop-color="#F97304"/>
</linearGradient>
<linearGradient id="paint8_linear_1931_1328" x1="-2535.72" y1="23.6757" x2="6399.14" y2="23.6757" gradientUnits="userSpaceOnUse">
<stop offset="0.3" stop-color="#FDF89D"/>
<stop offset="1" stop-color="#F97304"/>
</linearGradient>
<linearGradient id="paint9_linear_1931_1328" x1="-790.206" y1="19.6981" x2="2908.77" y2="19.6981" gradientUnits="userSpaceOnUse">
<stop offset="0.3" stop-color="#FDF89D"/>
<stop offset="1" stop-color="#F97304"/>
</linearGradient>
<linearGradient id="paint10_linear_1931_1328" x1="-325.718" y1="12.6554" x2="2301.09" y2="12.6554" gradientUnits="userSpaceOnUse">
<stop offset="0.3" stop-color="#FDF89D"/>
<stop offset="1" stop-color="#F97304"/>
</linearGradient>
<linearGradient id="paint11_linear_1931_1328" x1="-9.24855" y1="22.8252" x2="1824.21" y2="22.8252" gradientUnits="userSpaceOnUse">
<stop offset="0.3" stop-color="#FDF89D"/>
<stop offset="1" stop-color="#F97304"/>
</linearGradient>
</defs>
</svg>
