<svg width="198" height="49" viewBox="0 0 198 49" fill="none" xmlns="http://www.w3.org/2000/svg">
<g id="Logo">
<g id="Vector">
<path d="M18.144 18.816H4.576V15.168H18.144V18.816ZM22.816 23.84H18.176L10.688 4H11.968L4.48 23.84H0L9.024 0.960001H13.792L22.816 23.84Z" fill="url(#paint0_linear_729_376)"/>
<path d="M37.0047 18.528L39.6287 21.088C38.7967 22.1333 37.7834 22.944 36.5887 23.52C35.4154 24.0747 34.0714 24.352 32.5568 24.352C30.8928 24.352 29.3994 23.9893 28.0767 23.264C26.7541 22.5173 25.7087 21.504 24.9408 20.224C24.1941 18.9227 23.8207 17.4507 23.8207 15.808C23.8207 14.144 24.2048 12.672 24.9727 11.392C25.7407 10.0907 26.7861 9.07733 28.1087 8.352C29.4527 7.60533 30.9674 7.232 32.6528 7.232C34.1248 7.232 35.4474 7.52 36.6208 8.096C37.7941 8.65067 38.7967 9.44 39.6287 10.464L37.0047 13.056C36.5567 12.3733 35.9808 11.8187 35.2768 11.392C34.5941 10.9653 33.7941 10.752 32.8768 10.752C31.9594 10.752 31.1488 10.9653 30.4447 11.392C29.7407 11.8187 29.1861 12.416 28.7808 13.184C28.3754 13.952 28.1728 14.8267 28.1728 15.808C28.1728 16.768 28.3754 17.632 28.7808 18.4C29.1861 19.168 29.7407 19.7653 30.4447 20.192C31.1488 20.6187 31.9594 20.832 32.8768 20.832C33.8154 20.832 34.6261 20.6187 35.3088 20.192C35.9914 19.7653 36.5567 19.2107 37.0047 18.528Z" fill="url(#paint1_linear_729_376)"/>
<path d="M52.985 23.84H48.953C47.5023 23.84 46.4037 23.4773 45.657 22.752C44.9317 22.0053 44.569 20.9067 44.569 19.456V3.488H48.793V18.72C48.793 19.296 48.921 19.7227 49.177 20C49.433 20.256 49.8383 20.384 50.393 20.384H52.985V23.84ZM52.793 11.136H41.753V7.744H52.793V11.136Z" fill="url(#paint2_linear_729_376)"/>
<path d="M60.2145 23.84H55.9905V7.744H60.2145V23.84ZM58.1025 4.96C57.3985 4.96 56.7905 4.72533 56.2785 4.256C55.7878 3.76533 55.5425 3.17867 55.5425 2.496C55.5425 1.77067 55.7878 1.17333 56.2785 0.704C56.7905 0.234667 57.3985 0 58.1025 0C58.8278 0 59.4358 0.245333 59.9265 0.736C60.4172 1.20533 60.6625 1.792 60.6625 2.496C60.6625 3.17867 60.4172 3.76533 59.9265 4.256C59.4358 4.72533 58.8278 4.96 58.1025 4.96Z" fill="url(#paint3_linear_729_376)"/>
<path d="M73.5912 23.84H69.4952L62.6473 7.744H67.0312L72.0872 20.928H71.0953L76.2152 7.744H80.4713L73.5912 23.84Z" fill="url(#paint4_linear_729_376)"/>
<path d="M87.0895 23.84H82.8655V7.744H87.0895V23.84ZM84.9775 4.96C84.2735 4.96 83.6655 4.72533 83.1535 4.256C82.6628 3.76533 82.4175 3.17867 82.4175 2.496C82.4175 1.77067 82.6628 1.17333 83.1535 0.704C83.6655 0.234667 84.2735 0 84.9775 0C85.7028 0 86.3108 0.245333 86.8015 0.736C87.2922 1.20533 87.5375 1.792 87.5375 2.496C87.5375 3.17867 87.2922 3.76533 86.8015 4.256C86.3108 4.72533 85.7028 4.96 84.9775 4.96Z" fill="url(#paint5_linear_729_376)"/>
<path d="M101.266 23.84H97.2343C95.7836 23.84 94.6849 23.4773 93.9382 22.752C93.2129 22.0053 92.8503 20.9067 92.8503 19.456V3.488H97.0742V18.72C97.0742 19.296 97.2023 19.7227 97.4583 20C97.7142 20.256 98.1196 20.384 98.6742 20.384H101.266V23.84ZM101.074 11.136H90.0342V7.744H101.074V11.136Z" fill="url(#paint6_linear_729_376)"/>
<path d="M116.153 7.744H120.409L112.761 25.696C112.142 27.1253 111.363 28.2027 110.425 28.928C109.486 29.6747 108.238 30.048 106.681 30.048H104.601V26.592H106.457C107.097 26.592 107.63 26.4427 108.057 26.144C108.505 25.8667 108.857 25.4187 109.113 24.8L109.465 23.872L102.585 7.744H106.969L112.217 21.472H110.841L116.153 7.744Z" fill="url(#paint7_linear_729_376)"/>
<path d="M121.939 20.096L124.851 17.184C125.406 17.888 126.078 18.496 126.867 19.008C127.656 19.52 128.51 19.9147 129.427 20.192C130.344 20.4693 131.283 20.608 132.243 20.608C133.288 20.608 134.184 20.48 134.931 20.224C135.699 19.968 136.286 19.6053 136.691 19.136C137.118 18.6453 137.331 18.08 137.331 17.44C137.331 16.5867 136.915 15.904 136.083 15.392C135.272 14.8587 133.811 14.432 131.699 14.112C129.63 13.8133 127.944 13.376 126.643 12.8C125.363 12.224 124.414 11.4987 123.795 10.624C123.198 9.74933 122.899 8.71467 122.899 7.52C122.899 6.13333 123.283 4.90667 124.051 3.84C124.84 2.77333 125.918 1.94133 127.283 1.344C128.648 0.746669 130.206 0.448002 131.955 0.448002C134.003 0.448002 135.827 0.832001 137.427 1.6C139.027 2.368 140.382 3.40267 141.491 4.704L138.611 7.584C137.8 6.53867 136.83 5.70667 135.699 5.088C134.59 4.46934 133.352 4.16 131.987 4.16C130.6 4.16 129.47 4.448 128.595 5.024C127.72 5.57867 127.283 6.32533 127.283 7.264C127.283 7.75467 127.454 8.18133 127.795 8.544C128.136 8.90667 128.702 9.216 129.491 9.472C130.302 9.70667 131.39 9.93067 132.755 10.144C134.824 10.464 136.51 10.9333 137.811 11.552C139.134 12.1493 140.115 12.9173 140.755 13.856C141.395 14.7947 141.715 15.9147 141.715 17.216C141.715 18.6667 141.31 19.9253 140.499 20.992C139.688 22.0587 138.568 22.8907 137.139 23.488C135.71 24.064 134.056 24.352 132.179 24.352C129.982 24.352 128.019 23.968 126.291 23.2C124.563 22.4107 123.112 21.376 121.939 20.096Z" fill="url(#paint8_linear_729_376)"/>
<path d="M157.786 18.528L160.41 21.088C159.578 22.1333 158.565 22.944 157.37 23.52C156.197 24.0747 154.853 24.352 153.338 24.352C151.674 24.352 150.181 23.9893 148.858 23.264C147.535 22.5173 146.49 21.504 145.722 20.224C144.975 18.9227 144.602 17.4507 144.602 15.808C144.602 14.144 144.986 12.672 145.754 11.392C146.522 10.0907 147.567 9.07733 148.89 8.352C150.234 7.60533 151.749 7.232 153.434 7.232C154.906 7.232 156.229 7.52 157.402 8.096C158.575 8.65067 159.578 9.44 160.41 10.464L157.786 13.056C157.338 12.3733 156.762 11.8187 156.058 11.392C155.375 10.9653 154.575 10.752 153.658 10.752C152.741 10.752 151.93 10.9653 151.226 11.392C150.522 11.8187 149.967 12.416 149.562 13.184C149.157 13.952 148.954 14.8267 148.954 15.808C148.954 16.768 149.157 17.632 149.562 18.4C149.967 19.168 150.522 19.7653 151.226 20.192C151.93 20.6187 152.741 20.832 153.658 20.832C154.597 20.832 155.407 20.6187 156.09 20.192C156.773 19.7653 157.338 19.2107 157.786 18.528Z" fill="url(#paint9_linear_729_376)"/>
<path d="M177.839 23.84H173.999V20.608L173.807 20.096V14.048C173.807 12.9173 173.445 12.0427 172.719 11.424C171.994 10.8053 171.002 10.496 169.743 10.496C168.826 10.496 167.962 10.6773 167.151 11.04C166.362 11.3813 165.669 11.872 165.071 12.512L162.863 9.952C163.717 9.09867 164.751 8.43733 165.967 7.968C167.183 7.47733 168.506 7.232 169.935 7.232C171.493 7.232 172.869 7.49867 174.063 8.032C175.258 8.56534 176.186 9.33333 176.847 10.336C177.509 11.3173 177.839 12.5227 177.839 13.952V23.84ZM168.527 24.352C167.29 24.352 166.202 24.128 165.263 23.68C164.325 23.232 163.589 22.6133 163.055 21.824C162.543 21.0347 162.287 20.1173 162.287 19.072C162.287 17.9627 162.607 17.024 163.247 16.256C163.887 15.4667 164.794 14.8587 165.967 14.432C167.162 14.0053 168.538 13.792 170.095 13.792H174.223V16.544H170.415C169.263 16.544 168.335 16.7467 167.631 17.152C166.927 17.5573 166.575 18.144 166.575 18.912C166.575 19.616 166.842 20.1707 167.375 20.576C167.93 20.9813 168.645 21.184 169.519 21.184C170.351 21.184 171.109 21.0133 171.791 20.672C172.474 20.3093 173.029 19.8187 173.455 19.2C173.882 18.5813 174.127 17.8773 174.191 17.088L175.407 17.664C175.407 18.9867 175.119 20.1493 174.543 21.152C173.967 22.1547 173.157 22.944 172.111 23.52C171.087 24.0747 169.893 24.352 168.527 24.352Z" fill="url(#paint10_linear_729_376)"/>
<path d="M197.014 23.84H192.79V14.528C192.79 13.2693 192.502 12.3307 191.926 11.712C191.35 11.072 190.572 10.752 189.59 10.752C188.908 10.752 188.257 10.9333 187.638 11.296C187.02 11.6587 186.518 12.224 186.134 12.992C185.75 13.76 185.558 14.7733 185.558 16.032V23.84H181.334V7.744H185.526V12.736H185.014C185.206 11.3067 185.601 10.1973 186.198 9.408C186.817 8.59733 187.532 8.032 188.342 7.712C189.174 7.392 189.996 7.232 190.806 7.232C192.726 7.232 194.241 7.81867 195.35 8.992C196.46 10.1653 197.014 11.872 197.014 14.112V23.84Z" fill="url(#paint11_linear_729_376)"/>
<path d="M71.44 44.64L72.592 43.328C72.9547 43.6907 73.3867 43.9787 73.888 44.192C74.4 44.4053 74.9227 44.512 75.456 44.512C75.9467 44.512 76.336 44.4213 76.624 44.24C76.9227 44.0587 77.072 43.8347 77.072 43.568C77.072 43.2907 76.9387 43.088 76.672 42.96C76.416 42.8213 75.936 42.704 75.232 42.608C74.0587 42.4373 73.2 42.1653 72.656 41.792C72.112 41.408 71.84 40.88 71.84 40.208C71.84 39.6747 71.9893 39.2107 72.288 38.816C72.5867 38.4107 73.0027 38.096 73.536 37.872C74.0693 37.648 74.672 37.536 75.344 37.536C76.144 37.536 76.848 37.664 77.456 37.92C78.0747 38.176 78.6027 38.512 79.04 38.928L77.888 40.24C77.5573 39.8987 77.1733 39.6267 76.736 39.424C76.3093 39.2213 75.8507 39.12 75.36 39.12C74.9013 39.12 74.5333 39.2053 74.256 39.376C73.9893 39.5467 73.856 39.76 73.856 40.016C73.856 40.24 73.9893 40.4107 74.256 40.528C74.5227 40.6453 74.992 40.7467 75.664 40.832C76.816 41.0027 77.68 41.2853 78.256 41.68C78.832 42.0747 79.12 42.6453 79.12 43.392C79.12 43.936 78.96 44.416 78.64 44.832C78.32 45.2373 77.8773 45.552 77.312 45.776C76.7573 45.9893 76.1067 46.096 75.36 46.096C74.56 46.096 73.824 45.9627 73.152 45.696C72.48 45.4293 71.9093 45.0773 71.44 44.64Z" fill="white"/>
<path d="M82.7682 48.944H80.6562V37.792H82.7523V40.288H82.3043C82.3789 39.7653 82.5549 39.296 82.8323 38.88C83.1203 38.464 83.4936 38.1387 83.9522 37.904C84.4109 37.6587 84.9336 37.536 85.5202 37.536C86.2562 37.536 86.9282 37.7173 87.5362 38.08C88.1442 38.4427 88.6243 38.944 88.9762 39.584C89.3389 40.224 89.5202 40.9707 89.5202 41.824C89.5202 42.6667 89.3389 43.408 88.9762 44.048C88.6136 44.688 88.1283 45.1893 87.5202 45.552C86.9122 45.9147 86.2296 46.096 85.4723 46.096C84.7789 46.096 84.1816 45.9467 83.6803 45.648C83.1789 45.3493 82.8002 44.9493 82.5443 44.448C82.2883 43.936 82.1763 43.376 82.2083 42.768L82.6562 42.48C82.7096 42.8427 82.8429 43.168 83.0563 43.456C83.2696 43.7333 83.5416 43.952 83.8723 44.112C84.2136 44.2613 84.5816 44.336 84.9762 44.336C85.4456 44.336 85.8563 44.2293 86.2083 44.016C86.5602 43.8027 86.8323 43.504 87.0243 43.12C87.2269 42.736 87.3282 42.304 87.3282 41.824C87.3282 41.3227 87.2323 40.8853 87.0403 40.512C86.8589 40.128 86.5976 39.8293 86.2562 39.616C85.9256 39.4027 85.5309 39.296 85.0723 39.296C84.6243 39.296 84.2243 39.4027 83.8723 39.616C83.5309 39.8293 83.2589 40.128 83.0563 40.512C82.8643 40.8853 82.7682 41.3387 82.7682 41.872V48.944Z" fill="white"/>
<path d="M95.2381 46.096C94.3635 46.096 93.5901 45.9147 92.9181 45.552C92.2461 45.1787 91.7235 44.672 91.3501 44.032C90.9768 43.3813 90.7901 42.6453 90.7901 41.824C90.7901 40.9813 90.9768 40.24 91.3501 39.6C91.7235 38.96 92.2461 38.4587 92.9181 38.096C93.5901 37.7227 94.3635 37.536 95.2381 37.536C96.1128 37.536 96.8861 37.7227 97.5581 38.096C98.2301 38.4587 98.7528 38.96 99.1261 39.6C99.4995 40.24 99.6861 40.976 99.6861 41.808C99.6861 42.64 99.4995 43.3813 99.1261 44.032C98.7528 44.672 98.2301 45.1787 97.5581 45.552C96.8861 45.9147 96.1128 46.096 95.2381 46.096ZM95.2381 44.336C95.6861 44.336 96.0808 44.2293 96.4221 44.016C96.7635 43.8027 97.0301 43.5093 97.2221 43.136C97.4141 42.752 97.5101 42.3147 97.5101 41.824C97.5101 41.3227 97.4141 40.8853 97.2221 40.512C97.0301 40.128 96.7635 39.8293 96.4221 39.616C96.0808 39.4027 95.6861 39.296 95.2381 39.296C94.7901 39.296 94.3955 39.4027 94.0541 39.616C93.7128 39.8293 93.4461 40.128 93.2541 40.512C93.0621 40.8853 92.9661 41.3227 92.9661 41.824C92.9661 42.3147 93.0621 42.752 93.2541 43.136C93.4461 43.5093 93.7128 43.8027 94.0541 44.016C94.3955 44.2293 94.7901 44.336 95.2381 44.336Z" fill="white"/>
<path d="M106.258 37.648V39.568H105.826C105.325 39.568 104.893 39.6693 104.53 39.872C104.167 40.064 103.879 40.368 103.666 40.784C103.463 41.2 103.362 41.7387 103.362 42.4V45.84H101.25V37.792H103.346V40.4H103.09C103.186 39.6853 103.383 39.1307 103.682 38.736C103.991 38.3413 104.349 38.064 104.754 37.904C105.17 37.7333 105.575 37.648 105.97 37.648H106.258Z" fill="white"/>
<path d="M112.841 45.84H110.825C110.1 45.84 109.55 45.6587 109.177 45.296C108.814 44.9227 108.633 44.3733 108.633 43.648V35.664H110.745V43.28C110.745 43.568 110.809 43.7813 110.937 43.92C111.065 44.048 111.268 44.112 111.545 44.112H112.841V45.84ZM112.745 39.488H107.225V37.792H112.745V39.488Z" fill="white"/>
<path d="M113.784 44.64L114.936 43.328C115.298 43.6907 115.73 43.9787 116.232 44.192C116.744 44.4053 117.266 44.512 117.8 44.512C118.29 44.512 118.68 44.4213 118.968 44.24C119.266 44.0587 119.416 43.8347 119.416 43.568C119.416 43.2907 119.282 43.088 119.016 42.96C118.76 42.8213 118.28 42.704 117.576 42.608C116.402 42.4373 115.544 42.1653 115 41.792C114.456 41.408 114.184 40.88 114.184 40.208C114.184 39.6747 114.333 39.2107 114.632 38.816C114.93 38.4107 115.346 38.096 115.88 37.872C116.413 37.648 117.016 37.536 117.688 37.536C118.488 37.536 119.192 37.664 119.8 37.92C120.418 38.176 120.946 38.512 121.384 38.928L120.232 40.24C119.901 39.8987 119.517 39.6267 119.08 39.424C118.653 39.2213 118.194 39.12 117.704 39.12C117.245 39.12 116.877 39.2053 116.6 39.376C116.333 39.5467 116.2 39.76 116.2 40.016C116.2 40.24 116.333 40.4107 116.6 40.528C116.866 40.6453 117.336 40.7467 118.008 40.832C119.16 41.0027 120.024 41.2853 120.6 41.68C121.176 42.0747 121.464 42.6453 121.464 43.392C121.464 43.936 121.304 44.416 120.984 44.832C120.664 45.2373 120.221 45.552 119.656 45.776C119.101 45.9893 118.45 46.096 117.704 46.096C116.904 46.096 116.168 45.9627 115.496 45.696C114.824 45.4293 114.253 45.0773 113.784 44.64Z" fill="white"/>
</g>
<g id="Vector_2">
<path d="M18.144 18.816H4.576V15.168H18.144V18.816ZM22.816 23.84H18.176L10.688 4H11.968L4.48 23.84H0L9.024 0.960001H13.792L22.816 23.84Z" fill="url(#paint12_linear_729_376)"/>
<path d="M37.0047 18.528L39.6287 21.088C38.7967 22.1333 37.7834 22.944 36.5887 23.52C35.4154 24.0747 34.0714 24.352 32.5568 24.352C30.8928 24.352 29.3994 23.9893 28.0767 23.264C26.7541 22.5173 25.7087 21.504 24.9408 20.224C24.1941 18.9227 23.8207 17.4507 23.8207 15.808C23.8207 14.144 24.2048 12.672 24.9727 11.392C25.7407 10.0907 26.7861 9.07733 28.1087 8.352C29.4527 7.60533 30.9674 7.232 32.6528 7.232C34.1248 7.232 35.4474 7.52 36.6208 8.096C37.7941 8.65067 38.7967 9.44 39.6287 10.464L37.0047 13.056C36.5567 12.3733 35.9808 11.8187 35.2768 11.392C34.5941 10.9653 33.7941 10.752 32.8768 10.752C31.9594 10.752 31.1488 10.9653 30.4447 11.392C29.7407 11.8187 29.1861 12.416 28.7808 13.184C28.3754 13.952 28.1728 14.8267 28.1728 15.808C28.1728 16.768 28.3754 17.632 28.7808 18.4C29.1861 19.168 29.7407 19.7653 30.4447 20.192C31.1488 20.6187 31.9594 20.832 32.8768 20.832C33.8154 20.832 34.6261 20.6187 35.3088 20.192C35.9914 19.7653 36.5567 19.2107 37.0047 18.528Z" fill="url(#paint13_linear_729_376)"/>
<path d="M52.985 23.84H48.953C47.5023 23.84 46.4037 23.4773 45.657 22.752C44.9317 22.0053 44.569 20.9067 44.569 19.456V3.488H48.793V18.72C48.793 19.296 48.921 19.7227 49.177 20C49.433 20.256 49.8383 20.384 50.393 20.384H52.985V23.84ZM52.793 11.136H41.753V7.744H52.793V11.136Z" fill="url(#paint14_linear_729_376)"/>
<path d="M60.2145 23.84H55.9905V7.744H60.2145V23.84ZM58.1025 4.96C57.3985 4.96 56.7905 4.72533 56.2785 4.256C55.7878 3.76533 55.5425 3.17867 55.5425 2.496C55.5425 1.77067 55.7878 1.17333 56.2785 0.704C56.7905 0.234667 57.3985 0 58.1025 0C58.8278 0 59.4358 0.245333 59.9265 0.736C60.4172 1.20533 60.6625 1.792 60.6625 2.496C60.6625 3.17867 60.4172 3.76533 59.9265 4.256C59.4358 4.72533 58.8278 4.96 58.1025 4.96Z" fill="url(#paint15_linear_729_376)"/>
<path d="M73.5912 23.84H69.4952L62.6473 7.744H67.0312L72.0872 20.928H71.0953L76.2152 7.744H80.4713L73.5912 23.84Z" fill="url(#paint16_linear_729_376)"/>
<path d="M87.0895 23.84H82.8655V7.744H87.0895V23.84ZM84.9775 4.96C84.2735 4.96 83.6655 4.72533 83.1535 4.256C82.6628 3.76533 82.4175 3.17867 82.4175 2.496C82.4175 1.77067 82.6628 1.17333 83.1535 0.704C83.6655 0.234667 84.2735 0 84.9775 0C85.7028 0 86.3108 0.245333 86.8015 0.736C87.2922 1.20533 87.5375 1.792 87.5375 2.496C87.5375 3.17867 87.2922 3.76533 86.8015 4.256C86.3108 4.72533 85.7028 4.96 84.9775 4.96Z" fill="url(#paint17_linear_729_376)"/>
<path d="M101.266 23.84H97.2343C95.7836 23.84 94.6849 23.4773 93.9382 22.752C93.2129 22.0053 92.8503 20.9067 92.8503 19.456V3.488H97.0742V18.72C97.0742 19.296 97.2023 19.7227 97.4583 20C97.7142 20.256 98.1196 20.384 98.6742 20.384H101.266V23.84ZM101.074 11.136H90.0342V7.744H101.074V11.136Z" fill="url(#paint18_linear_729_376)"/>
<path d="M116.153 7.744H120.409L112.761 25.696C112.142 27.1253 111.363 28.2027 110.425 28.928C109.486 29.6747 108.238 30.048 106.681 30.048H104.601V26.592H106.457C107.097 26.592 107.63 26.4427 108.057 26.144C108.505 25.8667 108.857 25.4187 109.113 24.8L109.465 23.872L102.585 7.744H106.969L112.217 21.472H110.841L116.153 7.744Z" fill="url(#paint19_linear_729_376)"/>
<path d="M121.939 20.096L124.851 17.184C125.406 17.888 126.078 18.496 126.867 19.008C127.656 19.52 128.51 19.9147 129.427 20.192C130.344 20.4693 131.283 20.608 132.243 20.608C133.288 20.608 134.184 20.48 134.931 20.224C135.699 19.968 136.286 19.6053 136.691 19.136C137.118 18.6453 137.331 18.08 137.331 17.44C137.331 16.5867 136.915 15.904 136.083 15.392C135.272 14.8587 133.811 14.432 131.699 14.112C129.63 13.8133 127.944 13.376 126.643 12.8C125.363 12.224 124.414 11.4987 123.795 10.624C123.198 9.74933 122.899 8.71467 122.899 7.52C122.899 6.13333 123.283 4.90667 124.051 3.84C124.84 2.77333 125.918 1.94133 127.283 1.344C128.648 0.746669 130.206 0.448002 131.955 0.448002C134.003 0.448002 135.827 0.832001 137.427 1.6C139.027 2.368 140.382 3.40267 141.491 4.704L138.611 7.584C137.8 6.53867 136.83 5.70667 135.699 5.088C134.59 4.46934 133.352 4.16 131.987 4.16C130.6 4.16 129.47 4.448 128.595 5.024C127.72 5.57867 127.283 6.32533 127.283 7.264C127.283 7.75467 127.454 8.18133 127.795 8.544C128.136 8.90667 128.702 9.216 129.491 9.472C130.302 9.70667 131.39 9.93067 132.755 10.144C134.824 10.464 136.51 10.9333 137.811 11.552C139.134 12.1493 140.115 12.9173 140.755 13.856C141.395 14.7947 141.715 15.9147 141.715 17.216C141.715 18.6667 141.31 19.9253 140.499 20.992C139.688 22.0587 138.568 22.8907 137.139 23.488C135.71 24.064 134.056 24.352 132.179 24.352C129.982 24.352 128.019 23.968 126.291 23.2C124.563 22.4107 123.112 21.376 121.939 20.096Z" fill="url(#paint20_linear_729_376)"/>
<path d="M157.786 18.528L160.41 21.088C159.578 22.1333 158.565 22.944 157.37 23.52C156.197 24.0747 154.853 24.352 153.338 24.352C151.674 24.352 150.181 23.9893 148.858 23.264C147.535 22.5173 146.49 21.504 145.722 20.224C144.975 18.9227 144.602 17.4507 144.602 15.808C144.602 14.144 144.986 12.672 145.754 11.392C146.522 10.0907 147.567 9.07733 148.89 8.352C150.234 7.60533 151.749 7.232 153.434 7.232C154.906 7.232 156.229 7.52 157.402 8.096C158.575 8.65067 159.578 9.44 160.41 10.464L157.786 13.056C157.338 12.3733 156.762 11.8187 156.058 11.392C155.375 10.9653 154.575 10.752 153.658 10.752C152.741 10.752 151.93 10.9653 151.226 11.392C150.522 11.8187 149.967 12.416 149.562 13.184C149.157 13.952 148.954 14.8267 148.954 15.808C148.954 16.768 149.157 17.632 149.562 18.4C149.967 19.168 150.522 19.7653 151.226 20.192C151.93 20.6187 152.741 20.832 153.658 20.832C154.597 20.832 155.407 20.6187 156.09 20.192C156.773 19.7653 157.338 19.2107 157.786 18.528Z" fill="url(#paint21_linear_729_376)"/>
<path d="M177.839 23.84H173.999V20.608L173.807 20.096V14.048C173.807 12.9173 173.445 12.0427 172.719 11.424C171.994 10.8053 171.002 10.496 169.743 10.496C168.826 10.496 167.962 10.6773 167.151 11.04C166.362 11.3813 165.669 11.872 165.071 12.512L162.863 9.952C163.717 9.09867 164.751 8.43733 165.967 7.968C167.183 7.47733 168.506 7.232 169.935 7.232C171.493 7.232 172.869 7.49867 174.063 8.032C175.258 8.56534 176.186 9.33333 176.847 10.336C177.509 11.3173 177.839 12.5227 177.839 13.952V23.84ZM168.527 24.352C167.29 24.352 166.202 24.128 165.263 23.68C164.325 23.232 163.589 22.6133 163.055 21.824C162.543 21.0347 162.287 20.1173 162.287 19.072C162.287 17.9627 162.607 17.024 163.247 16.256C163.887 15.4667 164.794 14.8587 165.967 14.432C167.162 14.0053 168.538 13.792 170.095 13.792H174.223V16.544H170.415C169.263 16.544 168.335 16.7467 167.631 17.152C166.927 17.5573 166.575 18.144 166.575 18.912C166.575 19.616 166.842 20.1707 167.375 20.576C167.93 20.9813 168.645 21.184 169.519 21.184C170.351 21.184 171.109 21.0133 171.791 20.672C172.474 20.3093 173.029 19.8187 173.455 19.2C173.882 18.5813 174.127 17.8773 174.191 17.088L175.407 17.664C175.407 18.9867 175.119 20.1493 174.543 21.152C173.967 22.1547 173.157 22.944 172.111 23.52C171.087 24.0747 169.893 24.352 168.527 24.352Z" fill="url(#paint22_linear_729_376)"/>
<path d="M197.014 23.84H192.79V14.528C192.79 13.2693 192.502 12.3307 191.926 11.712C191.35 11.072 190.572 10.752 189.59 10.752C188.908 10.752 188.257 10.9333 187.638 11.296C187.02 11.6587 186.518 12.224 186.134 12.992C185.75 13.76 185.558 14.7733 185.558 16.032V23.84H181.334V7.744H185.526V12.736H185.014C185.206 11.3067 185.601 10.1973 186.198 9.408C186.817 8.59733 187.532 8.032 188.342 7.712C189.174 7.392 189.996 7.232 190.806 7.232C192.726 7.232 194.241 7.81867 195.35 8.992C196.46 10.1653 197.014 11.872 197.014 14.112V23.84Z" fill="url(#paint23_linear_729_376)"/>
<path d="M71.44 44.64L72.592 43.328C72.9547 43.6907 73.3867 43.9787 73.888 44.192C74.4 44.4053 74.9227 44.512 75.456 44.512C75.9467 44.512 76.336 44.4213 76.624 44.24C76.9227 44.0587 77.072 43.8347 77.072 43.568C77.072 43.2907 76.9387 43.088 76.672 42.96C76.416 42.8213 75.936 42.704 75.232 42.608C74.0587 42.4373 73.2 42.1653 72.656 41.792C72.112 41.408 71.84 40.88 71.84 40.208C71.84 39.6747 71.9893 39.2107 72.288 38.816C72.5867 38.4107 73.0027 38.096 73.536 37.872C74.0693 37.648 74.672 37.536 75.344 37.536C76.144 37.536 76.848 37.664 77.456 37.92C78.0747 38.176 78.6027 38.512 79.04 38.928L77.888 40.24C77.5573 39.8987 77.1733 39.6267 76.736 39.424C76.3093 39.2213 75.8507 39.12 75.36 39.12C74.9013 39.12 74.5333 39.2053 74.256 39.376C73.9893 39.5467 73.856 39.76 73.856 40.016C73.856 40.24 73.9893 40.4107 74.256 40.528C74.5227 40.6453 74.992 40.7467 75.664 40.832C76.816 41.0027 77.68 41.2853 78.256 41.68C78.832 42.0747 79.12 42.6453 79.12 43.392C79.12 43.936 78.96 44.416 78.64 44.832C78.32 45.2373 77.8773 45.552 77.312 45.776C76.7573 45.9893 76.1067 46.096 75.36 46.096C74.56 46.096 73.824 45.9627 73.152 45.696C72.48 45.4293 71.9093 45.0773 71.44 44.64Z" fill="white"/>
<path d="M82.7682 48.944H80.6562V37.792H82.7523V40.288H82.3043C82.3789 39.7653 82.5549 39.296 82.8323 38.88C83.1203 38.464 83.4936 38.1387 83.9522 37.904C84.4109 37.6587 84.9336 37.536 85.5202 37.536C86.2562 37.536 86.9282 37.7173 87.5362 38.08C88.1442 38.4427 88.6243 38.944 88.9762 39.584C89.3389 40.224 89.5202 40.9707 89.5202 41.824C89.5202 42.6667 89.3389 43.408 88.9762 44.048C88.6136 44.688 88.1283 45.1893 87.5202 45.552C86.9122 45.9147 86.2296 46.096 85.4723 46.096C84.7789 46.096 84.1816 45.9467 83.6803 45.648C83.1789 45.3493 82.8002 44.9493 82.5443 44.448C82.2883 43.936 82.1763 43.376 82.2083 42.768L82.6562 42.48C82.7096 42.8427 82.8429 43.168 83.0563 43.456C83.2696 43.7333 83.5416 43.952 83.8723 44.112C84.2136 44.2613 84.5816 44.336 84.9762 44.336C85.4456 44.336 85.8563 44.2293 86.2083 44.016C86.5602 43.8027 86.8323 43.504 87.0243 43.12C87.2269 42.736 87.3282 42.304 87.3282 41.824C87.3282 41.3227 87.2323 40.8853 87.0403 40.512C86.8589 40.128 86.5976 39.8293 86.2562 39.616C85.9256 39.4027 85.5309 39.296 85.0723 39.296C84.6243 39.296 84.2243 39.4027 83.8723 39.616C83.5309 39.8293 83.2589 40.128 83.0563 40.512C82.8643 40.8853 82.7682 41.3387 82.7682 41.872V48.944Z" fill="white"/>
<path d="M95.2381 46.096C94.3635 46.096 93.5901 45.9147 92.9181 45.552C92.2461 45.1787 91.7235 44.672 91.3501 44.032C90.9768 43.3813 90.7901 42.6453 90.7901 41.824C90.7901 40.9813 90.9768 40.24 91.3501 39.6C91.7235 38.96 92.2461 38.4587 92.9181 38.096C93.5901 37.7227 94.3635 37.536 95.2381 37.536C96.1128 37.536 96.8861 37.7227 97.5581 38.096C98.2301 38.4587 98.7528 38.96 99.1261 39.6C99.4995 40.24 99.6861 40.976 99.6861 41.808C99.6861 42.64 99.4995 43.3813 99.1261 44.032C98.7528 44.672 98.2301 45.1787 97.5581 45.552C96.8861 45.9147 96.1128 46.096 95.2381 46.096ZM95.2381 44.336C95.6861 44.336 96.0808 44.2293 96.4221 44.016C96.7635 43.8027 97.0301 43.5093 97.2221 43.136C97.4141 42.752 97.5101 42.3147 97.5101 41.824C97.5101 41.3227 97.4141 40.8853 97.2221 40.512C97.0301 40.128 96.7635 39.8293 96.4221 39.616C96.0808 39.4027 95.6861 39.296 95.2381 39.296C94.7901 39.296 94.3955 39.4027 94.0541 39.616C93.7128 39.8293 93.4461 40.128 93.2541 40.512C93.0621 40.8853 92.9661 41.3227 92.9661 41.824C92.9661 42.3147 93.0621 42.752 93.2541 43.136C93.4461 43.5093 93.7128 43.8027 94.0541 44.016C94.3955 44.2293 94.7901 44.336 95.2381 44.336Z" fill="white"/>
<path d="M106.258 37.648V39.568H105.826C105.325 39.568 104.893 39.6693 104.53 39.872C104.167 40.064 103.879 40.368 103.666 40.784C103.463 41.2 103.362 41.7387 103.362 42.4V45.84H101.25V37.792H103.346V40.4H103.09C103.186 39.6853 103.383 39.1307 103.682 38.736C103.991 38.3413 104.349 38.064 104.754 37.904C105.17 37.7333 105.575 37.648 105.97 37.648H106.258Z" fill="white"/>
<path d="M112.841 45.84H110.825C110.1 45.84 109.55 45.6587 109.177 45.296C108.814 44.9227 108.633 44.3733 108.633 43.648V35.664H110.745V43.28C110.745 43.568 110.809 43.7813 110.937 43.92C111.065 44.048 111.268 44.112 111.545 44.112H112.841V45.84ZM112.745 39.488H107.225V37.792H112.745V39.488Z" fill="white"/>
<path d="M113.784 44.64L114.936 43.328C115.298 43.6907 115.73 43.9787 116.232 44.192C116.744 44.4053 117.266 44.512 117.8 44.512C118.29 44.512 118.68 44.4213 118.968 44.24C119.266 44.0587 119.416 43.8347 119.416 43.568C119.416 43.2907 119.282 43.088 119.016 42.96C118.76 42.8213 118.28 42.704 117.576 42.608C116.402 42.4373 115.544 42.1653 115 41.792C114.456 41.408 114.184 40.88 114.184 40.208C114.184 39.6747 114.333 39.2107 114.632 38.816C114.93 38.4107 115.346 38.096 115.88 37.872C116.413 37.648 117.016 37.536 117.688 37.536C118.488 37.536 119.192 37.664 119.8 37.92C120.418 38.176 120.946 38.512 121.384 38.928L120.232 40.24C119.901 39.8987 119.517 39.6267 119.08 39.424C118.653 39.2213 118.194 39.12 117.704 39.12C117.245 39.12 116.877 39.2053 116.6 39.376C116.333 39.5467 116.2 39.76 116.2 40.016C116.2 40.24 116.333 40.4107 116.6 40.528C116.866 40.6453 117.336 40.7467 118.008 40.832C119.16 41.0027 120.024 41.2853 120.6 41.68C121.176 42.0747 121.464 42.6453 121.464 43.392C121.464 43.936 121.304 44.416 120.984 44.832C120.664 45.2373 120.221 45.552 119.656 45.776C119.101 45.9893 118.45 46.096 117.704 46.096C116.904 46.096 116.168 45.9627 115.496 45.696C114.824 45.4293 114.253 45.0773 113.784 44.64Z" fill="white"/>
</g>
</g>
<defs>
<linearGradient id="paint0_linear_729_376" x1="0" y1="24.472" x2="197.014" y2="24.472" gradientUnits="userSpaceOnUse">
<stop offset="0.301" stop-color="#FDF89D"/>
<stop offset="1" stop-color="#F97304"/>
</linearGradient>
<linearGradient id="paint1_linear_729_376" x1="0" y1="24.472" x2="197.014" y2="24.472" gradientUnits="userSpaceOnUse">
<stop offset="0.301" stop-color="#FDF89D"/>
<stop offset="1" stop-color="#F97304"/>
</linearGradient>
<linearGradient id="paint2_linear_729_376" x1="0" y1="24.472" x2="197.014" y2="24.472" gradientUnits="userSpaceOnUse">
<stop offset="0.301" stop-color="#FDF89D"/>
<stop offset="1" stop-color="#F97304"/>
</linearGradient>
<linearGradient id="paint3_linear_729_376" x1="0" y1="24.472" x2="197.014" y2="24.472" gradientUnits="userSpaceOnUse">
<stop offset="0.301" stop-color="#FDF89D"/>
<stop offset="1" stop-color="#F97304"/>
</linearGradient>
<linearGradient id="paint4_linear_729_376" x1="0" y1="24.472" x2="197.014" y2="24.472" gradientUnits="userSpaceOnUse">
<stop offset="0.301" stop-color="#FDF89D"/>
<stop offset="1" stop-color="#F97304"/>
</linearGradient>
<linearGradient id="paint5_linear_729_376" x1="0" y1="24.472" x2="197.014" y2="24.472" gradientUnits="userSpaceOnUse">
<stop offset="0.301" stop-color="#FDF89D"/>
<stop offset="1" stop-color="#F97304"/>
</linearGradient>
<linearGradient id="paint6_linear_729_376" x1="0" y1="24.472" x2="197.014" y2="24.472" gradientUnits="userSpaceOnUse">
<stop offset="0.301" stop-color="#FDF89D"/>
<stop offset="1" stop-color="#F97304"/>
</linearGradient>
<linearGradient id="paint7_linear_729_376" x1="0" y1="24.472" x2="197.014" y2="24.472" gradientUnits="userSpaceOnUse">
<stop offset="0.301" stop-color="#FDF89D"/>
<stop offset="1" stop-color="#F97304"/>
</linearGradient>
<linearGradient id="paint8_linear_729_376" x1="0" y1="24.472" x2="197.014" y2="24.472" gradientUnits="userSpaceOnUse">
<stop offset="0.301" stop-color="#FDF89D"/>
<stop offset="1" stop-color="#F97304"/>
</linearGradient>
<linearGradient id="paint9_linear_729_376" x1="0" y1="24.472" x2="197.014" y2="24.472" gradientUnits="userSpaceOnUse">
<stop offset="0.301" stop-color="#FDF89D"/>
<stop offset="1" stop-color="#F97304"/>
</linearGradient>
<linearGradient id="paint10_linear_729_376" x1="0" y1="24.472" x2="197.014" y2="24.472" gradientUnits="userSpaceOnUse">
<stop offset="0.301" stop-color="#FDF89D"/>
<stop offset="1" stop-color="#F97304"/>
</linearGradient>
<linearGradient id="paint11_linear_729_376" x1="0" y1="24.472" x2="197.014" y2="24.472" gradientUnits="userSpaceOnUse">
<stop offset="0.301" stop-color="#FDF89D"/>
<stop offset="1" stop-color="#F97304"/>
</linearGradient>
<linearGradient id="paint12_linear_729_376" x1="0" y1="24.472" x2="197.014" y2="24.472" gradientUnits="userSpaceOnUse">
<stop offset="0.301" stop-color="#FDF89D"/>
<stop offset="1" stop-color="#F97304"/>
</linearGradient>
<linearGradient id="paint13_linear_729_376" x1="0" y1="24.472" x2="197.014" y2="24.472" gradientUnits="userSpaceOnUse">
<stop offset="0.301" stop-color="#FDF89D"/>
<stop offset="1" stop-color="#F97304"/>
</linearGradient>
<linearGradient id="paint14_linear_729_376" x1="0" y1="24.472" x2="197.014" y2="24.472" gradientUnits="userSpaceOnUse">
<stop offset="0.301" stop-color="#FDF89D"/>
<stop offset="1" stop-color="#F97304"/>
</linearGradient>
<linearGradient id="paint15_linear_729_376" x1="0" y1="24.472" x2="197.014" y2="24.472" gradientUnits="userSpaceOnUse">
<stop offset="0.301" stop-color="#FDF89D"/>
<stop offset="1" stop-color="#F97304"/>
</linearGradient>
<linearGradient id="paint16_linear_729_376" x1="0" y1="24.472" x2="197.014" y2="24.472" gradientUnits="userSpaceOnUse">
<stop offset="0.301" stop-color="#FDF89D"/>
<stop offset="1" stop-color="#F97304"/>
</linearGradient>
<linearGradient id="paint17_linear_729_376" x1="0" y1="24.472" x2="197.014" y2="24.472" gradientUnits="userSpaceOnUse">
<stop offset="0.301" stop-color="#FDF89D"/>
<stop offset="1" stop-color="#F97304"/>
</linearGradient>
<linearGradient id="paint18_linear_729_376" x1="0" y1="24.472" x2="197.014" y2="24.472" gradientUnits="userSpaceOnUse">
<stop offset="0.301" stop-color="#FDF89D"/>
<stop offset="1" stop-color="#F97304"/>
</linearGradient>
<linearGradient id="paint19_linear_729_376" x1="0" y1="24.472" x2="197.014" y2="24.472" gradientUnits="userSpaceOnUse">
<stop offset="0.301" stop-color="#FDF89D"/>
<stop offset="1" stop-color="#F97304"/>
</linearGradient>
<linearGradient id="paint20_linear_729_376" x1="0" y1="24.472" x2="197.014" y2="24.472" gradientUnits="userSpaceOnUse">
<stop offset="0.301" stop-color="#FDF89D"/>
<stop offset="1" stop-color="#F97304"/>
</linearGradient>
<linearGradient id="paint21_linear_729_376" x1="0" y1="24.472" x2="197.014" y2="24.472" gradientUnits="userSpaceOnUse">
<stop offset="0.301" stop-color="#FDF89D"/>
<stop offset="1" stop-color="#F97304"/>
</linearGradient>
<linearGradient id="paint22_linear_729_376" x1="0" y1="24.472" x2="197.014" y2="24.472" gradientUnits="userSpaceOnUse">
<stop offset="0.301" stop-color="#FDF89D"/>
<stop offset="1" stop-color="#F97304"/>
</linearGradient>
<linearGradient id="paint23_linear_729_376" x1="0" y1="24.472" x2="197.014" y2="24.472" gradientUnits="userSpaceOnUse">
<stop offset="0.301" stop-color="#FDF89D"/>
<stop offset="1" stop-color="#F97304"/>
</linearGradient>
</defs>
</svg>
