<svg width="200" height="60" viewBox="0 0 200 60" fill="none" xmlns="http://www.w3.org/2000/svg">
<path d="M15 25.9478L17.9564 22.9914C18.5196 23.7061 19.2018 24.3234 20.0032 24.8432C20.8046 25.363 21.6709 25.7637 22.6023 26.0453C23.5336 26.3268 24.4866 26.4676 25.4612 26.4676C26.5225 26.4676 27.4322 26.3377 28.1902 26.0777C28.97 25.8178 29.5656 25.4496 29.9771 24.9731C30.4103 24.475 30.6269 23.901 30.6269 23.2513C30.6269 22.3849 30.2045 21.6918 29.3598 21.172C28.5368 20.6305 27.0531 20.1974 24.9089 19.8725C22.808 19.5693 21.097 19.1253 19.7758 18.5405C18.4762 17.9557 17.5124 17.2193 16.8843 16.3313C16.2779 15.4433 15.9746 14.3928 15.9746 13.1799C15.9746 11.7721 16.3645 10.5267 17.1442 9.44376C17.9456 8.36081 19.0394 7.51612 20.4255 6.90967C21.8117 6.30322 23.3928 6 25.1688 6C27.2481 6 29.0999 6.38986 30.7243 7.16958C32.3487 7.94929 33.7241 8.99975 34.8503 10.3209L31.9264 13.2449C31.1033 12.1836 30.1179 11.3389 28.97 10.7108C27.8437 10.0827 26.5875 9.76864 25.2013 9.76864C23.7935 9.76864 22.6456 10.061 21.7576 10.6458C20.8695 11.209 20.4255 11.967 20.4255 12.92C20.4255 13.4182 20.5988 13.8513 20.9454 14.2195C21.2919 14.5877 21.8659 14.9018 22.6672 15.1617C23.4903 15.3999 24.5949 15.6274 25.981 15.8439C28.0819 16.1688 29.793 16.6453 31.1142 17.2734C32.457 17.8799 33.4533 18.6596 34.1031 19.6126C34.7529 20.5656 35.0777 21.7027 35.0777 23.0238C35.0777 24.4967 34.6662 25.7745 33.8432 26.8575C33.0202 27.9404 31.8831 28.7851 30.4319 29.3915C28.9808 29.9763 27.3022 30.2687 25.3962 30.2687C23.1654 30.2687 21.1728 29.8789 19.4184 29.0992C17.664 28.2978 16.1912 27.2473 15 25.9478Z" fill="url(#paint0_linear_2484_6107)"/>
<path d="M43.2069 36.0516H38.9185V13.4073H43.1744V18.4755H42.2648C42.4164 17.4142 42.7737 16.4612 43.3369 15.6165C43.9217 14.7718 44.6797 14.1112 45.611 13.6347C46.5424 13.1366 47.6037 12.8875 48.7949 12.8875C50.2894 12.8875 51.6539 13.2557 52.8884 13.9921C54.123 14.7285 55.0976 15.7465 55.8124 17.046C56.5488 18.3455 56.917 19.8617 56.917 21.5944C56.917 23.3054 56.5488 24.8107 55.8124 26.1102C55.076 27.4098 54.0905 28.4277 52.8559 29.1641C51.6214 29.9005 50.2352 30.2687 48.6974 30.2687C47.2896 30.2687 46.0767 29.9655 45.0588 29.3591C44.0408 28.7526 43.2719 27.9404 42.7521 26.9224C42.2323 25.8828 42.0049 24.7457 42.0698 23.5112L42.9795 22.9264C43.0878 23.6628 43.3585 24.3234 43.7917 24.9082C44.2249 25.4713 44.7772 25.9153 45.4486 26.2402C46.1417 26.5434 46.8889 26.695 47.6903 26.695C48.6433 26.695 49.4772 26.4784 50.1919 26.0453C50.9066 25.6121 51.4589 25.0056 51.8488 24.2259C52.2603 23.4462 52.4661 22.569 52.4661 21.5944C52.4661 20.5764 52.2711 19.6884 51.8813 18.9303C51.5131 18.1506 50.9824 17.5442 50.2894 17.111C49.6179 16.6778 48.8166 16.4612 47.8852 16.4612C46.9756 16.4612 46.1634 16.6778 45.4486 17.111C44.7555 17.5442 44.2032 18.1506 43.7917 18.9303C43.4018 19.6884 43.2069 20.6089 43.2069 21.6918V36.0516Z" fill="url(#paint1_linear_2484_6107)"/>
<path d="M68.8521 30.2687C67.0761 30.2687 65.5058 29.9005 64.1413 29.1641C62.7768 28.4061 61.7155 27.3773 60.9574 26.0777C60.1994 24.7566 59.8203 23.2621 59.8203 21.5944C59.8203 19.8833 60.1994 18.378 60.9574 17.0785C61.7155 15.779 62.7768 14.761 64.1413 14.0246C65.5058 13.2665 67.0761 12.8875 68.8521 12.8875C70.6281 12.8875 72.1984 13.2665 73.5629 14.0246C74.9274 14.761 75.9887 15.779 76.7467 17.0785C77.5048 18.378 77.8838 19.8725 77.8838 21.5619C77.8838 23.2513 77.5048 24.7566 76.7467 26.0777C75.9887 27.3773 74.9274 28.4061 73.5629 29.1641C72.1984 29.9005 70.6281 30.2687 68.8521 30.2687ZM68.8521 26.695C69.7618 26.695 70.5631 26.4784 71.2562 26.0453C71.9493 25.6121 72.4908 25.0165 72.8806 24.2584C73.2705 23.4787 73.4654 22.5907 73.4654 21.5944C73.4654 20.5764 73.2705 19.6884 72.8806 18.9303C72.4908 18.1506 71.9493 17.5442 71.2562 17.111C70.5631 16.6778 69.7618 16.4612 68.8521 16.4612C67.9424 16.4612 67.141 16.6778 66.448 17.111C65.7549 17.5442 65.2134 18.1506 64.8235 18.9303C64.4337 19.6884 64.2388 20.5764 64.2388 21.5944C64.2388 22.5907 64.4337 23.4787 64.8235 24.2584C65.2134 25.0165 65.7549 25.6121 66.448 26.0453C67.141 26.4784 67.9424 26.695 68.8521 26.695Z" fill="url(#paint2_linear_2484_6107)"/>
<path d="M91.553 13.1149V17.0135H90.6758C89.6579 17.0135 88.7807 17.2193 88.0443 17.6308C87.3079 18.0207 86.7231 18.6379 86.2899 19.4826C85.8784 20.3273 85.6726 21.4211 85.6726 22.7639V29.7489H81.3842V13.4073H85.6401V18.7029H85.1203C85.3153 17.2518 85.716 16.1255 86.3224 15.3241C86.9505 14.5228 87.6761 13.9596 88.4991 13.6347C89.3438 13.2882 90.1668 13.1149 90.9682 13.1149H91.553Z" fill="url(#paint3_linear_2484_6107)"/>
<path d="M105.245 29.7489H101.151C99.6785 29.7489 98.563 29.3807 97.805 28.6443C97.0686 27.8863 96.7004 26.7708 96.7004 25.298V9.08638H100.989V24.5508C100.989 25.1356 101.119 25.5688 101.379 25.8503C101.639 26.1102 102.05 26.2402 102.613 26.2402H105.245V29.7489ZM105.05 16.8511H93.8414V13.4073H105.05V16.8511Z" fill="url(#paint4_linear_2484_6107)"/>
<path d="M107.744 25.9478L110.7 22.9914C111.263 23.7061 111.946 24.3234 112.747 24.8432C113.548 25.363 114.415 25.7637 115.346 26.0453C116.277 26.3268 117.23 26.4676 118.205 26.4676C119.266 26.4676 120.176 26.3377 120.934 26.0777C121.714 25.8178 122.309 25.4496 122.721 24.9731C123.154 24.475 123.371 23.901 123.371 23.2513C123.371 22.3849 122.948 21.6918 122.104 21.172C121.281 20.6305 119.797 20.1974 117.653 19.8725C115.552 19.5693 113.841 19.1253 112.52 18.5405C111.22 17.9557 110.256 17.2193 109.628 16.3313C109.022 15.4433 108.718 14.3928 108.718 13.1799C108.718 11.7721 109.108 10.5267 109.888 9.44376C110.689 8.36081 111.783 7.51612 113.169 6.90967C114.556 6.30322 116.137 6 117.913 6C119.992 6 121.844 6.38986 123.468 7.16958C125.093 7.94929 126.468 8.99975 127.594 10.3209L124.67 13.2449C123.847 12.1836 122.862 11.3389 121.714 10.7108C120.588 10.0827 119.331 9.76864 117.945 9.76864C116.537 9.76864 115.389 10.061 114.501 10.6458C113.613 11.209 113.169 11.967 113.169 12.92C113.169 13.4182 113.343 13.8513 113.689 14.2195C114.036 14.5877 114.61 14.9018 115.411 15.1617C116.234 15.3999 117.339 15.6274 118.725 15.8439C120.826 16.1688 122.537 16.6453 123.858 17.2734C125.201 17.8799 126.197 18.6596 126.847 19.6126C127.497 20.5656 127.822 21.7027 127.822 23.0238C127.822 24.4967 127.41 25.7745 126.587 26.8575C125.764 27.9404 124.627 28.7851 123.176 29.3915C121.725 29.9763 120.046 30.2687 118.14 30.2687C115.909 30.2687 113.917 29.8789 112.162 29.0992C110.408 28.2978 108.935 27.2473 107.744 25.9478Z" fill="url(#paint5_linear_2484_6107)"/>
<path d="M144.463 24.3559L147.127 26.9549C146.282 28.0162 145.253 28.8392 144.04 29.424C142.849 29.9872 141.485 30.2687 139.947 30.2687C138.257 30.2687 136.741 29.9005 135.398 29.1641C134.056 28.4061 132.994 27.3773 132.215 26.0777C131.457 24.7566 131.078 23.2621 131.078 21.5944C131.078 19.905 131.467 18.4105 132.247 17.111C133.027 15.7898 134.088 14.761 135.431 14.0246C136.795 13.2665 138.333 12.8875 140.044 12.8875C141.539 12.8875 142.882 13.1799 144.073 13.7647C145.264 14.3278 146.282 15.1292 147.127 16.1688L144.463 18.8004C144.008 18.1073 143.423 17.5442 142.708 17.111C142.015 16.6778 141.203 16.4612 140.272 16.4612C139.34 16.4612 138.517 16.6778 137.803 17.111C137.088 17.5442 136.525 18.1506 136.113 18.9303C135.702 19.71 135.496 20.5981 135.496 21.5944C135.496 22.569 135.702 23.4462 136.113 24.2259C136.525 25.0056 137.088 25.6121 137.803 26.0453C138.517 26.4784 139.34 26.695 140.272 26.695C141.225 26.695 142.048 26.4784 142.741 26.0453C143.434 25.6121 144.008 25.049 144.463 24.3559Z" fill="url(#paint6_linear_2484_6107)"/>
<path d="M165.115 29.7489H161.216V26.4676L161.022 25.9478V19.8075C161.022 18.6596 160.653 17.7716 159.917 17.1435C159.181 16.5154 158.173 16.2013 156.896 16.2013C155.964 16.2013 155.087 16.3854 154.264 16.7536C153.463 17.1002 152.759 17.5983 152.152 18.2481L149.911 15.649C150.777 14.7827 151.827 14.1112 153.062 13.6347C154.296 13.1366 155.639 12.8875 157.09 12.8875C158.672 12.8875 160.069 13.1582 161.281 13.6997C162.494 14.2412 163.437 15.0209 164.108 16.0389C164.779 17.0352 165.115 18.2589 165.115 19.71V29.7489ZM155.661 30.2687C154.405 30.2687 153.3 30.0413 152.347 29.5865C151.394 29.1316 150.647 28.5035 150.105 27.7022C149.586 26.9008 149.326 25.9695 149.326 24.9082C149.326 23.7819 149.651 22.8289 150.3 22.0492C150.95 21.2478 151.871 20.6305 153.062 20.1974C154.275 19.7642 155.672 19.5476 157.253 19.5476H161.444V22.3416H157.578C156.408 22.3416 155.466 22.5474 154.751 22.9589C154.037 23.3704 153.679 23.966 153.679 24.7457C153.679 25.4605 153.95 26.0236 154.491 26.4351C155.055 26.8466 155.78 27.0524 156.668 27.0524C157.513 27.0524 158.282 26.8791 158.975 26.5326C159.668 26.1644 160.231 25.6662 160.664 25.0381C161.097 24.41 161.346 23.6953 161.411 22.8939L162.646 23.4787C162.646 24.8215 162.354 26.0019 161.769 27.0199C161.184 28.0379 160.361 28.8392 159.3 29.424C158.26 29.9872 157.047 30.2687 155.661 30.2687Z" fill="url(#paint7_linear_2484_6107)"/>
<path d="M184.908 29.7489H180.619V20.2948C180.619 19.017 180.327 18.064 179.742 17.4359C179.157 16.7861 178.367 16.4612 177.37 16.4612C176.677 16.4612 176.017 16.6453 175.388 17.0135C174.76 17.3817 174.251 17.9557 173.862 18.7354C173.472 19.5151 173.277 20.5439 173.277 21.8218V29.7489H168.988V13.4073H173.244V18.4755H172.724C172.919 17.0243 173.32 15.8981 173.926 15.0967C174.555 14.2737 175.28 13.6997 176.103 13.3748C176.948 13.05 177.782 12.8875 178.605 12.8875C180.554 12.8875 182.092 13.4831 183.218 14.6744C184.344 15.8656 184.908 17.5983 184.908 19.8725V29.7489Z" fill="url(#paint8_linear_2484_6107)"/>
<path d="M42.3565 50.5631L43.4949 49.2666C43.8533 49.625 44.2802 49.9096 44.7756 50.1204C45.2815 50.3312 45.798 50.4366 46.325 50.4366C46.8099 50.4366 47.1946 50.347 47.4792 50.1678C47.7743 49.9887 47.9219 49.7673 47.9219 49.5038C47.9219 49.2297 47.7902 49.0295 47.5266 48.903C47.2737 48.7659 46.7994 48.65 46.1037 48.5551C44.9442 48.3865 44.0957 48.1177 43.5581 47.7488C43.0206 47.3693 42.7518 46.8476 42.7518 46.1835C42.7518 45.6565 42.8993 45.198 43.1945 44.808C43.4896 44.4074 43.9007 44.0965 44.4277 43.8751C44.9548 43.6538 45.5503 43.5431 46.2143 43.5431C47.0049 43.5431 47.7006 43.6696 48.3014 43.9226C48.9127 44.1755 49.4345 44.5076 49.8666 44.9186L48.7283 46.2151C48.4015 45.8778 48.0221 45.6091 47.5899 45.4088C47.1683 45.2085 46.715 45.1084 46.2302 45.1084C45.7769 45.1084 45.4133 45.1927 45.1392 45.3614C44.8757 45.53 44.7439 45.7408 44.7439 45.9938C44.7439 46.2151 44.8757 46.3838 45.1392 46.4997C45.4027 46.6157 45.8665 46.7158 46.5306 46.8001C47.6689 46.9688 48.5227 47.2481 49.0919 47.6381C49.6611 48.0281 49.9457 48.592 49.9457 49.3299C49.9457 49.8674 49.7876 50.3418 49.4714 50.7528C49.1552 51.1534 48.7177 51.4643 48.1591 51.6857C47.611 51.8965 46.968 52.0019 46.2302 52.0019C45.4396 52.0019 44.7123 51.8701 44.0483 51.6066C43.3842 51.3431 42.8203 50.9953 42.3565 50.5631Z" fill="white"/>
<path d="M53.7089 54.8162H51.6219V43.7961H53.6931V46.2626H53.2504C53.3242 45.7461 53.4981 45.2823 53.7722 44.8712C54.0568 44.4601 54.4257 44.1386 54.8789 43.9068C55.3322 43.6643 55.8487 43.5431 56.4284 43.5431C57.1557 43.5431 57.8197 43.7223 58.4205 44.0807C59.0214 44.4391 59.4957 44.9345 59.8435 45.5669C60.2019 46.1993 60.3811 46.9372 60.3811 47.7804C60.3811 48.6131 60.2019 49.3457 59.8435 49.9781C59.4851 50.6105 59.0055 51.1059 58.4047 51.4643C57.8039 51.8227 57.1293 52.0019 56.381 52.0019C55.6958 52.0019 55.1055 51.8543 54.6101 51.5592C54.1147 51.2641 53.7405 50.8688 53.4876 50.3734C53.2346 49.8674 53.1239 49.3141 53.1555 48.7132L53.5982 48.4286C53.651 48.787 53.7827 49.1085 53.9935 49.3931C54.2043 49.6672 54.4731 49.8832 54.7999 50.0414C55.1372 50.1889 55.5008 50.2627 55.8908 50.2627C56.3546 50.2627 56.7604 50.1573 57.1082 49.9465C57.4561 49.7357 57.7249 49.4405 57.9146 49.0611C58.1149 48.6816 58.215 48.2547 58.215 47.7804C58.215 47.285 58.1201 46.8528 57.9304 46.4839C57.7512 46.1045 57.493 45.8093 57.1557 45.5985C56.8289 45.3877 56.4389 45.2823 55.9857 45.2823C55.543 45.2823 55.1477 45.3877 54.7999 45.5985C54.4626 45.8093 54.1938 46.1045 53.9935 46.4839C53.8038 46.8528 53.7089 47.3008 53.7089 47.8278V54.8162Z" fill="white"/>
<path d="M66.1895 52.0019C65.3251 52.0019 64.5609 51.8227 63.8969 51.4643C63.2328 51.0954 62.7164 50.5947 62.3474 49.9623C61.9785 49.3193 61.7941 48.592 61.7941 47.7804C61.7941 46.9477 61.9785 46.2151 62.3474 45.5827C62.7164 44.9503 63.2328 44.4549 63.8969 44.0965C64.5609 43.7276 65.3251 43.5431 66.1895 43.5431C67.0538 43.5431 67.818 43.7276 68.482 44.0965C69.1461 44.4549 69.6626 44.9503 70.0315 45.5827C70.4004 46.2151 70.5849 46.9424 70.5849 47.7646C70.5849 48.5868 70.4004 49.3193 70.0315 49.9623C69.6626 50.5947 69.1461 51.0954 68.482 51.4643C67.818 51.8227 67.0538 52.0019 66.1895 52.0019ZM66.1895 50.2627C66.6322 50.2627 67.0222 50.1573 67.3595 49.9465C67.6968 49.7357 67.9603 49.4458 68.15 49.0769C68.3397 48.6974 68.4346 48.2653 68.4346 47.7804C68.4346 47.285 68.3397 46.8528 68.15 46.4839C67.9603 46.1045 67.6968 45.8093 67.3595 45.5985C67.0222 45.3877 66.6322 45.2823 66.1895 45.2823C65.7468 45.2823 65.3568 45.3877 65.0195 45.5985C64.6822 45.8093 64.4186 46.1045 64.2289 46.4839C64.0392 46.8528 63.9443 47.285 63.9443 47.7804C63.9443 48.2653 64.0392 48.6974 64.2289 49.0769C64.4186 49.4458 64.6822 49.7357 65.0195 49.9465C65.3568 50.1573 65.7468 50.2627 66.1895 50.2627Z" fill="white"/>
<path d="M77.2371 43.6538V45.5511H76.8102C76.3148 45.5511 75.888 45.6512 75.5296 45.8515C75.1712 46.0412 74.8866 46.3416 74.6758 46.7527C74.4755 47.1638 74.3754 47.6961 74.3754 48.3496V51.7489H72.2884V43.7961H74.3596V46.3732H74.1066C74.2015 45.667 74.3965 45.1189 74.6916 44.7289C74.9973 44.3389 75.3504 44.0649 75.7509 43.9068C76.162 43.7381 76.5625 43.6538 76.9525 43.6538H77.2371Z" fill="white"/>
<path d="M83.9004 51.7489H81.9082C81.1915 51.7489 80.6487 51.5697 80.2797 51.2114C79.9214 50.8424 79.7422 50.2996 79.7422 49.5828V41.6932H81.8292V49.2192C81.8292 49.5038 81.8924 49.7146 82.0189 49.8516C82.1454 49.9781 82.3457 50.0414 82.6197 50.0414H83.9004V51.7489ZM83.8055 45.472H78.3508V43.7961H83.8055V45.472Z" fill="white"/>
<path d="M84.9901 50.5631L86.1285 49.2666C86.4869 49.625 86.9138 49.9096 87.4092 50.1204C87.9151 50.3312 88.4316 50.4366 88.9586 50.4366C89.4435 50.4366 89.8282 50.347 90.1128 50.1678C90.408 49.9887 90.5555 49.7673 90.5555 49.5038C90.5555 49.2297 90.4238 49.0295 90.1603 48.903C89.9073 48.7659 89.433 48.65 88.7373 48.5551C87.5778 48.3865 86.7293 48.1177 86.1917 47.7488C85.6542 47.3693 85.3854 46.8476 85.3854 46.1835C85.3854 45.6565 85.533 45.198 85.8281 44.808C86.1232 44.4074 86.5343 44.0965 87.0613 43.8751C87.5884 43.6538 88.1839 43.5431 88.848 43.5431C89.6385 43.5431 90.3342 43.6696 90.935 43.9226C91.5463 44.1755 92.0681 44.5076 92.5003 44.9186L91.3619 46.2151C91.0351 45.8778 90.6557 45.6091 90.2235 45.4088C89.8019 45.2085 89.3486 45.1084 88.8638 45.1084C88.4105 45.1084 88.0469 45.1927 87.7728 45.3614C87.5093 45.53 87.3775 45.7408 87.3775 45.9938C87.3775 46.2151 87.5093 46.3838 87.7728 46.4997C88.0363 46.6157 88.5001 46.7158 89.1642 46.8001C90.3026 46.9688 91.1563 47.2481 91.7255 47.6381C92.2947 48.0281 92.5793 48.592 92.5793 49.3299C92.5793 49.8674 92.4212 50.3418 92.105 50.7528C91.7888 51.1534 91.3513 51.4643 90.7927 51.6857C90.2446 51.8965 89.6016 52.0019 88.8638 52.0019C88.0732 52.0019 87.3459 51.8701 86.6819 51.6066C86.0178 51.3431 85.4539 50.9953 84.9901 50.5631Z" fill="white"/>
<path d="M107.289 47.1005L105.692 49.3299C104.996 50.2785 104.29 50.9636 103.573 51.3853C102.867 51.7964 102.06 52.0019 101.154 52.0019C100.353 52.0019 99.6519 51.8596 99.0511 51.575C98.4503 51.2904 97.9865 50.9057 97.6598 50.4208C97.333 49.9254 97.1696 49.3615 97.1696 48.7291C97.1696 47.8647 97.4806 47.1322 98.1025 46.5314C98.7349 45.9305 99.7099 45.4404 101.027 45.0609L101.375 46.31C100.637 46.563 100.105 46.8845 99.7784 47.2745C99.4517 47.6539 99.2883 48.0861 99.2883 48.5709C99.2883 49.0769 99.4675 49.4985 99.8258 49.8358C100.184 50.1731 100.659 50.3418 101.249 50.3418C101.586 50.3418 101.908 50.2838 102.213 50.1678C102.529 50.0519 102.851 49.8464 103.178 49.5512C103.515 49.2561 103.863 48.8397 104.221 48.3022L105.802 46.057L107.289 47.1005ZM107.636 50.5631L106.387 51.907L100.49 46.4997L100.158 46.2468C99.673 45.8041 99.2935 45.4088 99.0195 45.0609C98.7454 44.7026 98.5452 44.3653 98.4187 44.0491C98.3027 43.7223 98.2448 43.385 98.2448 43.0372C98.2448 42.5101 98.3923 42.0305 98.6875 41.5984C98.9826 41.1662 99.3726 40.8236 99.8575 40.5707C100.353 40.3177 100.901 40.1912 101.502 40.1912C102.113 40.1912 102.667 40.323 103.162 40.5865C103.657 40.8395 104.047 41.182 104.332 41.6142C104.617 42.0464 104.759 42.5312 104.759 43.0688C104.759 43.5642 104.617 44.0227 104.332 44.4443C104.058 44.8554 103.673 45.2191 103.178 45.5353C102.682 45.8409 102.113 46.0886 101.47 46.2784L101.091 45.0135C101.681 44.8343 102.134 44.5814 102.45 44.2546C102.777 43.9278 102.941 43.5589 102.941 43.1478C102.941 42.7473 102.804 42.4153 102.529 42.1518C102.266 41.8777 101.929 41.7407 101.518 41.7407C101.149 41.7407 100.827 41.8724 100.553 42.1359C100.279 42.3889 100.142 42.7051 100.142 43.0846C100.142 43.3165 100.189 43.5484 100.284 43.7803C100.39 44.0016 100.564 44.2441 100.806 44.5076C101.049 44.7605 101.381 45.0609 101.802 45.4088L102.15 45.6776L107.636 50.5631Z" fill="white"/>
<path d="M120.528 51.7489H118.457V49.8674L118.441 49.7568V47.8278C118.441 47.3008 118.346 46.8528 118.156 46.4839C117.967 46.1045 117.698 45.8093 117.35 45.5985C117.013 45.3877 116.623 45.2823 116.18 45.2823C115.737 45.2823 115.342 45.3877 114.994 45.5985C114.657 45.8093 114.393 46.1045 114.204 46.4839C114.024 46.8528 113.935 47.285 113.935 47.7804C113.935 48.2547 114.035 48.6816 114.235 49.0611C114.436 49.4405 114.71 49.7357 115.057 49.9465C115.405 50.1573 115.811 50.2627 116.275 50.2627C116.665 50.2627 117.023 50.1889 117.35 50.0414C117.677 49.8832 117.946 49.6672 118.156 49.3931C118.367 49.1085 118.499 48.787 118.552 48.4286L119.01 48.7132C119.042 49.3141 118.926 49.8674 118.662 50.3734C118.409 50.8688 118.035 51.2641 117.54 51.5592C117.055 51.8543 116.465 52.0019 115.769 52.0019C115.031 52.0019 114.357 51.8227 113.745 51.4643C113.144 51.1059 112.665 50.6105 112.306 49.9781C111.959 49.3457 111.785 48.6131 111.785 47.7804C111.785 46.9372 111.959 46.1993 112.306 45.5669C112.665 44.9345 113.144 44.4391 113.745 44.0807C114.346 43.7223 115.015 43.5431 115.753 43.5431C116.364 43.5431 116.892 43.6591 117.334 43.8909C117.787 44.1228 118.151 44.4443 118.425 44.8554C118.71 45.2665 118.884 45.7355 118.947 46.2626H118.441V40.3651H120.528V51.7489Z" fill="white"/>
<path d="M129.878 51.7489H127.981V50.152L127.886 49.8991V46.9108C127.886 46.3522 127.707 45.92 127.348 45.6143C126.99 45.3087 126.5 45.1558 125.878 45.1558C125.425 45.1558 124.998 45.2454 124.597 45.4246C124.207 45.5932 123.865 45.8357 123.569 46.1519L122.479 44.887C122.9 44.4654 123.411 44.1386 124.012 43.9068C124.613 43.6643 125.267 43.5431 125.973 43.5431C126.742 43.5431 127.422 43.6749 128.012 43.9384C128.603 44.2019 129.061 44.5813 129.388 45.0768C129.715 45.5616 129.878 46.1572 129.878 46.8634V51.7489ZM125.277 52.0019C124.666 52.0019 124.128 51.8912 123.664 51.6699C123.201 51.4485 122.837 51.1428 122.573 50.7528C122.32 50.3628 122.194 49.9096 122.194 49.3931C122.194 48.845 122.352 48.3812 122.668 48.0018C122.984 47.6118 123.432 47.3114 124.012 47.1005C124.602 46.8897 125.282 46.7843 126.052 46.7843H128.091V48.1441H126.21C125.641 48.1441 125.182 48.2442 124.834 48.4445C124.487 48.6447 124.313 48.9346 124.313 49.3141C124.313 49.6619 124.444 49.9359 124.708 50.1362C124.982 50.3365 125.335 50.4366 125.767 50.4366C126.178 50.4366 126.552 50.3523 126.89 50.1837C127.227 50.0045 127.501 49.762 127.712 49.4564C127.923 49.1507 128.044 48.8028 128.076 48.4128L128.676 48.6974C128.676 49.3509 128.534 49.9254 128.249 50.4208C127.965 50.9162 127.564 51.3062 127.048 51.5908C126.542 51.8649 125.952 52.0019 125.277 52.0019Z" fill="white"/>
<path d="M139.51 51.7489H137.423V47.148C137.423 46.5261 137.281 46.0623 136.996 45.7566C136.712 45.4404 136.327 45.2823 135.842 45.2823C135.505 45.2823 135.183 45.3719 134.878 45.5511C134.572 45.7303 134.324 46.0096 134.135 46.3891C133.945 46.7685 133.85 47.2692 133.85 47.8911V51.7489H131.763V43.7961H133.834V46.2626H133.581C133.676 45.5564 133.871 45.0082 134.166 44.6182C134.472 44.2177 134.825 43.9384 135.226 43.7803C135.637 43.6222 136.042 43.5431 136.443 43.5431C137.392 43.5431 138.14 43.833 138.688 44.4127C139.236 44.9924 139.51 45.8357 139.51 46.9424V51.7489Z" fill="white"/>
<path d="M147.631 49.1243L148.927 50.3892C148.516 50.9057 148.016 51.3062 147.425 51.5908C146.846 51.8649 146.182 52.0019 145.433 52.0019C144.611 52.0019 143.873 51.8227 143.22 51.4643C142.566 51.0954 142.05 50.5947 141.67 49.9623C141.301 49.3193 141.117 48.592 141.117 47.7804C141.117 46.9582 141.306 46.2309 141.686 45.5985C142.065 44.9555 142.582 44.4549 143.235 44.0965C143.899 43.7276 144.648 43.5431 145.481 43.5431C146.208 43.5431 146.861 43.6854 147.441 43.97C148.021 44.2441 148.516 44.6341 148.927 45.14L147.631 46.4207C147.409 46.0834 147.125 45.8093 146.777 45.5985C146.44 45.3877 146.044 45.2823 145.591 45.2823C145.138 45.2823 144.737 45.3877 144.39 45.5985C144.042 45.8093 143.768 46.1045 143.567 46.4839C143.367 46.8634 143.267 47.2955 143.267 47.7804C143.267 48.2547 143.367 48.6816 143.567 49.0611C143.768 49.4405 144.042 49.7357 144.39 49.9465C144.737 50.1573 145.138 50.2627 145.591 50.2627C146.055 50.2627 146.456 50.1573 146.793 49.9465C147.13 49.7357 147.409 49.4616 147.631 49.1243Z" fill="white"/>
<path d="M157.083 49.2666L158.19 50.5473C157.79 51.0005 157.273 51.3589 156.641 51.6224C156.019 51.8754 155.328 52.0019 154.569 52.0019C153.652 52.0019 152.846 51.8227 152.15 51.4643C151.455 51.1059 150.912 50.6105 150.522 49.9781C150.132 49.3457 149.937 48.6131 149.937 47.7804C149.937 46.9477 150.121 46.2151 150.49 45.5827C150.87 44.9397 151.381 44.4391 152.024 44.0807C152.677 43.7223 153.41 43.5431 154.222 43.5431C155.012 43.5431 155.713 43.7223 156.324 44.0807C156.946 44.4285 157.431 44.9134 157.779 45.5353C158.127 46.1572 158.301 46.8792 158.301 47.7014V47.7962H156.261V47.5749C156.261 47.09 156.172 46.6684 155.992 46.31C155.824 45.9516 155.587 45.6723 155.281 45.472C154.986 45.2718 154.633 45.1716 154.222 45.1716C153.789 45.1716 153.41 45.277 153.083 45.4878C152.756 45.6881 152.498 45.9832 152.308 46.3732C152.129 46.7527 152.04 47.2059 152.04 47.733C152.04 48.2916 152.15 48.7712 152.372 49.1718C152.604 49.5618 152.915 49.8622 153.305 50.073C153.705 50.2732 154.164 50.3734 154.68 50.3734C155.629 50.3734 156.43 50.0045 157.083 49.2666ZM158.301 48.4128H151.281V47.0847H158.048L158.301 47.7014V48.4128Z" fill="white"/>
<defs>
<linearGradient id="paint0_linear_2484_6107" x1="15" y1="30.4081" x2="184.908" y2="30.4081" gradientUnits="userSpaceOnUse">
<stop stop-color="#FDF89D"/>
<stop offset="1" stop-color="#F97304"/>
</linearGradient>
<linearGradient id="paint1_linear_2484_6107" x1="15" y1="30.4081" x2="184.908" y2="30.4081" gradientUnits="userSpaceOnUse">
<stop stop-color="#FDF89D"/>
<stop offset="1" stop-color="#F97304"/>
</linearGradient>
<linearGradient id="paint2_linear_2484_6107" x1="15" y1="30.4081" x2="184.908" y2="30.4081" gradientUnits="userSpaceOnUse">
<stop stop-color="#FDF89D"/>
<stop offset="1" stop-color="#F97304"/>
</linearGradient>
<linearGradient id="paint3_linear_2484_6107" x1="15" y1="30.4081" x2="184.908" y2="30.4081" gradientUnits="userSpaceOnUse">
<stop stop-color="#FDF89D"/>
<stop offset="1" stop-color="#F97304"/>
</linearGradient>
<linearGradient id="paint4_linear_2484_6107" x1="15" y1="30.4081" x2="184.908" y2="30.4081" gradientUnits="userSpaceOnUse">
<stop stop-color="#FDF89D"/>
<stop offset="1" stop-color="#F97304"/>
</linearGradient>
<linearGradient id="paint5_linear_2484_6107" x1="15" y1="30.4081" x2="184.908" y2="30.4081" gradientUnits="userSpaceOnUse">
<stop stop-color="#FDF89D"/>
<stop offset="1" stop-color="#F97304"/>
</linearGradient>
<linearGradient id="paint6_linear_2484_6107" x1="15" y1="30.4081" x2="184.908" y2="30.4081" gradientUnits="userSpaceOnUse">
<stop stop-color="#FDF89D"/>
<stop offset="1" stop-color="#F97304"/>
</linearGradient>
<linearGradient id="paint7_linear_2484_6107" x1="15" y1="30.4081" x2="184.908" y2="30.4081" gradientUnits="userSpaceOnUse">
<stop stop-color="#FDF89D"/>
<stop offset="1" stop-color="#F97304"/>
</linearGradient>
<linearGradient id="paint8_linear_2484_6107" x1="15" y1="30.4081" x2="184.908" y2="30.4081" gradientUnits="userSpaceOnUse">
<stop stop-color="#FDF89D"/>
<stop offset="1" stop-color="#F97304"/>
</linearGradient>
</defs>
</svg>
