<svg width="32" height="32" viewBox="0 0 32 32" fill="none" xmlns="http://www.w3.org/2000/svg">
<mask id="path-1-inside-1_1920_2726" fill="white">
<path fill-rule="evenodd" clip-rule="evenodd" d="M18.5 7C18.5 6.44772 18.0523 6 17.5 6H14.5C13.9477 6 13.5 6.44772 13.5 7V12.5C13.5 13.0523 13.0523 13.5 12.5 13.5L7 13.5C6.44772 13.5 6 13.9477 6 14.5V17.5C6 18.0523 6.44772 18.5 7 18.5H12.5C13.0523 18.5 13.5 18.9477 13.5 19.5V25C13.5 25.5523 13.9477 26 14.5 26H17.5C18.0523 26 18.5 25.5523 18.5 25V19.5C18.5 18.9477 18.9477 18.5 19.5 18.5H25C25.5523 18.5 26 18.0523 26 17.5V14.5C26 13.9477 25.5523 13.5 25 13.5L19.5 13.5C18.9477 13.5 18.5 13.0523 18.5 12.5V7Z"/>
</mask>
<path fill-rule="evenodd" clip-rule="evenodd" d="M18.5 7C18.5 6.44772 18.0523 6 17.5 6H14.5C13.9477 6 13.5 6.44772 13.5 7V12.5C13.5 13.0523 13.0523 13.5 12.5 13.5L7 13.5C6.44772 13.5 6 13.9477 6 14.5V17.5C6 18.0523 6.44772 18.5 7 18.5H12.5C13.0523 18.5 13.5 18.9477 13.5 19.5V25C13.5 25.5523 13.9477 26 14.5 26H17.5C18.0523 26 18.5 25.5523 18.5 25V19.5C18.5 18.9477 18.9477 18.5 19.5 18.5H25C25.5523 18.5 26 18.0523 26 17.5V14.5C26 13.9477 25.5523 13.5 25 13.5L19.5 13.5C18.9477 13.5 18.5 13.0523 18.5 12.5V7Z" fill="#023D67"/>
<path d="M19.5 13.5V12.5V13.5ZM12.5 13.5V12.5V13.5ZM14.5 7H17.5V5H14.5V7ZM14.5 12.5V7H12.5V12.5H14.5ZM7 14.5H12.5V12.5L7 12.5L7 14.5ZM7 17.5V14.5H5V17.5H7ZM12.5 17.5H7V19.5H12.5V17.5ZM14.5 25V19.5H12.5V25H14.5ZM17.5 25H14.5V27H17.5V25ZM17.5 19.5V25H19.5V19.5H17.5ZM25 17.5H19.5V19.5H25V17.5ZM25 14.5V17.5H27V14.5H25ZM19.5 14.5H25V12.5L19.5 12.5V14.5ZM17.5 7V12.5H19.5V7H17.5ZM19.5 12.5H17.5C17.5 13.6046 18.3954 14.5 19.5 14.5V12.5ZM27 14.5C27 13.3954 26.1046 12.5 25 12.5V14.5H27ZM25 19.5C26.1046 19.5 27 18.6046 27 17.5H25V19.5ZM19.5 19.5V17.5C18.3954 17.5 17.5 18.3954 17.5 19.5H19.5ZM17.5 27C18.6046 27 19.5 26.1046 19.5 25H17.5V27ZM12.5 25C12.5 26.1046 13.3954 27 14.5 27V25H12.5ZM12.5 19.5H14.5C14.5 18.3954 13.6046 17.5 12.5 17.5V19.5ZM5 17.5C5 18.6046 5.89543 19.5 7 19.5V17.5H7H5ZM7 12.5C5.89543 12.5 5 13.3954 5 14.5H7L7 12.5ZM12.5 12.5V14.5C13.6046 14.5 14.5 13.6046 14.5 12.5H12.5ZM17.5 7H19.5C19.5 5.89543 18.6046 5 17.5 5V7ZM14.5 5C13.3954 5 12.5 5.89543 12.5 7H14.5V7V5Z" fill="#023D67" mask="url(#path-1-inside-1_1920_2726)"/>
</svg>
