<svg width="16" height="20" viewBox="0 0 16 20" fill="none" xmlns="http://www.w3.org/2000/svg">
<path id="&#208;&#160;" d="M0 20V0H8.60341C10.0827 0 11.3771 0.292969 12.4866 0.878907C13.5961 1.46484 14.459 2.28841 15.0754 3.34961C15.6918 4.41081 16 5.65104 16 7.07031C16 8.5026 15.6821 9.74284 15.0462 10.791C14.4169 11.8392 13.5312 12.6465 12.3893 13.2129C11.2539 13.7793 9.92701 14.0625 8.40876 14.0625H3.27007V9.84375H7.31874C7.95458 9.84375 8.49635 9.73307 8.94404 9.51172C9.39822 9.28385 9.74534 8.96159 9.9854 8.54492C10.232 8.12826 10.3552 7.63672 10.3552 7.07031C10.3552 6.4974 10.232 6.00911 9.9854 5.60547C9.74534 5.19531 9.39822 4.88281 8.94404 4.66797C8.49635 4.44661 7.95458 4.33594 7.31874 4.33594H5.41119V20H0Z" fill="#023D67"/>
</svg>
