<svg width="20" height="24" viewBox="0 0 20 24" fill="none" xmlns="http://www.w3.org/2000/svg">
<path d="M0.5 24V0.727272H10.5455C12.2727 0.727272 13.7841 1.06818 15.0795 1.75C16.375 2.43182 17.3826 3.39015 18.1023 4.625C18.822 5.85985 19.1818 7.30303 19.1818 8.95455C19.1818 10.6212 18.8106 12.0644 18.0682 13.2841C17.3333 14.5038 16.2992 15.4432 14.9659 16.1023C13.6402 16.7614 12.0909 17.0909 10.3182 17.0909H4.31818V12.1818H9.04545C9.78788 12.1818 10.4205 12.053 10.9432 11.7955C11.4735 11.5303 11.8788 11.1553 12.1591 10.6705C12.447 10.1856 12.5909 9.61364 12.5909 8.95455C12.5909 8.28788 12.447 7.7197 12.1591 7.25C11.8788 6.77273 11.4735 6.40909 10.9432 6.15909C10.4205 5.90151 9.78788 5.77273 9.04545 5.77273H6.81818V24H0.5Z" fill="black"/>
</svg>
