<svg width="25" height="24" viewBox="0 0 25 24" fill="none" xmlns="http://www.w3.org/2000/svg">
<path id="Vector" d="M23.6087 17.9431C23.6085 17.9516 23.6084 17.9601 23.6084 17.9686L23.6084 21.5816L23.6084 21.5857C23.6092 21.7778 23.5688 21.9687 23.4889 22.1465C23.409 22.3244 23.2909 22.4861 23.1406 22.6203C22.9902 22.7546 22.811 22.8583 22.6139 22.9232C22.4191 22.9873 22.2122 23.0118 22.0064 22.9947C18.3536 22.6069 14.8465 21.3914 11.7665 19.4473L11.7665 19.4473L11.7587 19.4425C8.89243 17.6697 6.46458 15.3058 4.64603 12.5203L4.64606 12.5203L4.64115 12.5129C2.63979 9.50599 1.39487 6.08476 1.00513 2.52609C0.988618 2.33757 1.01204 2.14738 1.07447 1.96697C1.1377 1.78424 1.23997 1.61441 1.37639 1.46896C1.51287 1.32344 1.68059 1.20551 1.86976 1.12418C2.05888 1.04287 2.26438 1.00035 2.47292 1.00012H6.18437V1.00016L6.19395 1.00007C6.55944 0.99657 6.9099 1.1228 7.18045 1.34926C7.44925 1.57426 7.61995 1.88151 7.66885 2.21125C7.83609 3.44236 8.14565 4.65084 8.59146 5.81367L8.59235 5.81597C8.68832 6.06448 8.70879 6.33324 8.65219 6.59156L9.62901 6.8056L8.65219 6.59156C8.59571 6.8493 8.464 7.08948 8.26864 7.28242L6.69949 8.8097C6.37017 9.13023 6.3017 9.63394 6.53352 10.0307C8.38703 13.2035 11.0839 15.8269 14.3368 17.6272C14.7225 17.8407 15.2026 17.7764 15.5185 17.4688L17.0859 15.9432C17.0865 15.9427 17.087 15.9421 17.0876 15.9416C17.2863 15.751 17.5398 15.617 17.8196 15.5589C18.1002 15.5006 18.3921 15.5221 18.6596 15.6199L18.6618 15.6207C19.8523 16.0531 21.0887 16.353 22.3478 16.515C22.7117 16.5659 23.0382 16.744 23.2683 17.0084C23.4985 17.2729 23.6173 17.6057 23.6087 17.9431Z" stroke="black" stroke-width="2" stroke-linecap="round" stroke-linejoin="round"/>
</svg>
