<svg width="32" height="32" viewBox="0 0 32 32" fill="none" xmlns="http://www.w3.org/2000/svg">
<g id="SAFE">
<path id="Vector (Stroke)" fill-rule="evenodd" clip-rule="evenodd" d="M24.9833 6.49402C25.5865 7.13257 25.5643 8.14539 24.9337 8.7562L24.304 9.36609L25.8454 10.859C26.1571 11.1609 26.3333 11.5786 26.3333 12.0152C26.3333 12.4519 26.1571 12.8696 25.8454 13.1714L22.6543 16.2621C22.0433 16.8538 21.0806 16.8538 20.4696 16.2621L18.8267 14.6709L17.2177 16.2293C17.372 16.482 17.5091 16.7457 17.6275 17.0187C17.9702 17.8089 18.1493 18.6597 18.1523 19.5214C18.1552 20.3831 17.9821 21.2351 17.6448 22.0276C17.3075 22.8199 16.8138 23.535 16.1956 24.1337C15.5776 24.7322 14.8473 25.2029 14.0484 25.5219C13.2496 25.8408 12.3958 26.0028 11.5356 26C10.6754 25.9972 9.82264 25.8297 9.02593 25.5055C8.22914 25.1813 7.50193 24.7058 6.88796 24.1032L6.8759 24.0912C5.66682 22.8788 4.98486 21.2398 5.00026 19.5236C5.01565 17.8076 5.72682 16.181 6.95666 14.9899C8.18422 13.801 9.83072 13.1382 11.5381 13.1238C12.7363 13.1138 13.9098 13.4234 14.9345 14.0124L22.749 6.4438C23.3797 5.83298 24.38 5.85547 24.9833 6.49402ZM14.0324 17.2861C14.0236 17.2783 14.0149 17.2703 14.0062 17.2622C13.3626 16.6601 12.4867 16.316 11.5644 16.3237C10.6422 16.3315 9.77325 16.6903 9.14132 17.3023C8.51167 17.9122 8.16807 18.7219 8.16062 19.5527C8.15319 20.3807 8.47996 21.1928 9.0939 21.8116C9.40773 22.118 9.78446 22.3654 10.2044 22.5363C10.6272 22.7083 11.0832 22.7985 11.5457 22.8C12.0082 22.8015 12.4649 22.7143 12.889 22.545C13.3129 22.3757 13.6937 22.1286 14.011 21.8213C14.3281 21.5141 14.5755 21.1531 14.7423 20.7611C14.9091 20.3692 14.9932 19.9519 14.9918 19.5326C14.9903 19.1132 14.9033 18.6964 14.7338 18.3055C14.5708 17.9299 14.3339 17.5834 14.0324 17.2861ZM21.1128 12.4568L21.562 12.8917L22.467 12.0152L22.0178 11.5802L21.1128 12.4568Z" fill="#023D67"/>
</g>
</svg>
