<svg width="26" height="29" viewBox="0 0 26 29" fill="none" xmlns="http://www.w3.org/2000/svg">
<path d="M8.45333 16.3467L17.56 21.6533M17.5467 7.01333L8.45333 12.32M25 5C25 7.20914 23.2091 9 21 9C18.7909 9 17 7.20914 17 5C17 2.79086 18.7909 1 21 1C23.2091 1 25 2.79086 25 5ZM9 14.3333C9 16.5425 7.20914 18.3333 5 18.3333C2.79086 18.3333 1 16.5425 1 14.3333C1 12.1242 2.79086 10.3333 5 10.3333C7.20914 10.3333 9 12.1242 9 14.3333ZM25 23.6667C25 25.8758 23.2091 27.6667 21 27.6667C18.7909 27.6667 17 25.8758 17 23.6667C17 21.4575 18.7909 19.6667 21 19.6667C23.2091 19.6667 25 21.4575 25 23.6667Z" stroke="#023D67" stroke-width="2" stroke-linecap="round" stroke-linejoin="round"/>
</svg>
