<svg width="28" height="30" viewBox="0 0 28 30" fill="none" xmlns="http://www.w3.org/2000/svg">
<path id="Vector" d="M9.45333 17.3467L18.56 22.6533M18.5467 8.01333L9.45333 13.32M26 6C26 8.20914 24.2091 10 22 10C19.7909 10 18 8.20914 18 6C18 3.79086 19.7909 2 22 2C24.2091 2 26 3.79086 26 6ZM10 15.3333C10 17.5425 8.20914 19.3333 6 19.3333C3.79086 19.3333 2 17.5425 2 15.3333C2 13.1242 3.79086 11.3333 6 11.3333C8.20914 11.3333 10 13.1242 10 15.3333ZM26 24.6667C26 26.8758 24.2091 28.6667 22 28.6667C19.7909 28.6667 18 26.8758 18 24.6667C18 22.4575 19.7909 20.6667 22 20.6667C24.2091 20.6667 26 22.4575 26 24.6667Z" stroke="black" stroke-width="2.44444" stroke-linecap="round" stroke-linejoin="round"/>
</svg>
