<svg width="30" height="30" viewBox="0 0 30 30" fill="none" xmlns="http://www.w3.org/2000/svg">
<g id="Union">
<mask id="path-1-inside-1_493_3691" fill="white">
<path fill-rule="evenodd" clip-rule="evenodd" d="M18.75 0H11.25V11.25H0V18.75H11.25V30H18.75V18.75H30V11.25H18.75V0Z"/>
</mask>
<path fill-rule="evenodd" clip-rule="evenodd" d="M18.75 0H11.25V11.25H0V18.75H11.25V30H18.75V18.75H30V11.25H18.75V0Z" fill="#757474"/>
<path d="M11.25 0V-1H10.25V0H11.25ZM18.75 0H19.75V-1H18.75V0ZM11.25 11.25V12.25H12.25V11.25H11.25ZM0 11.25V10.25H-1V11.25H0ZM0 18.75H-1V19.75H0V18.75ZM11.25 18.75H12.25V17.75H11.25V18.75ZM11.25 30H10.25V31H11.25V30ZM18.75 30V31H19.75V30H18.75ZM18.75 18.75V17.75H17.75V18.75H18.75ZM30 18.75V19.75H31V18.75H30ZM30 11.25H31V10.25H30V11.25ZM18.75 11.25H17.75V12.25H18.75V11.25ZM11.25 1H18.75V-1H11.25V1ZM12.25 11.25V0H10.25V11.25H12.25ZM0 12.25H11.25V10.25H0V12.25ZM1 18.75V11.25H-1V18.75H1ZM11.25 17.75H0V19.75H11.25V17.75ZM12.25 30V18.75H10.25V30H12.25ZM18.75 29H11.25V31H18.75V29ZM17.75 18.75V30H19.75V18.75H17.75ZM30 17.75H18.75V19.75H30V17.75ZM29 11.25V18.75H31V11.25H29ZM18.75 12.25H30V10.25H18.75V12.25ZM17.75 0V11.25H19.75V0H17.75Z" fill="black" mask="url(#path-1-inside-1_493_3691)"/>
</g>
</svg>
