<svg width="40" height="32" viewBox="0 0 40 32" fill="none" xmlns="http://www.w3.org/2000/svg">
<path fill-rule="evenodd" clip-rule="evenodd" d="M20.3333 9.33382C16.4366 9.33382 12.6737 10.7652 9.75043 13.3595C9.0645 13.9683 8.01828 13.9019 7.41365 13.2113C6.80902 12.5207 6.87493 11.4674 7.56086 10.8586C11.0889 7.72755 15.6303 6 20.3333 6C25.0363 6 29.5778 7.72755 33.1058 10.8586C33.7917 11.4674 33.8576 12.5207 33.253 13.2113C32.6484 13.9019 31.6022 13.9683 30.9162 13.3595C27.993 10.7652 24.2301 9.33382 20.3333 9.33382ZM20.3775 14.8896C17.9254 14.8896 15.5508 15.7549 13.6667 17.3349C12.9641 17.9241 11.9201 17.8283 11.3349 17.1209C10.7497 16.4135 10.8449 15.3625 11.5475 14.7733C14.0266 12.6943 17.151 11.5558 20.3775 11.5558C23.6039 11.5558 26.7284 12.6943 29.2075 14.7733C29.9101 15.3625 30.0052 16.4135 29.42 17.1209C28.8348 17.8283 27.7909 17.9241 27.0883 17.3349C25.2041 15.7549 22.8296 14.8896 20.3775 14.8896ZM20.3389 20.445C19.308 20.445 18.3026 20.768 17.4622 21.3691C16.7168 21.9023 15.6832 21.7261 15.1536 20.9757C14.6241 20.2252 14.799 19.1845 15.5444 18.6513C16.9451 17.6495 18.6207 17.1112 20.3389 17.1112C22.057 17.1112 23.7326 17.6495 25.1333 18.6513C25.8787 19.1845 26.0536 20.2252 25.5241 20.9757C24.9945 21.7261 23.9609 21.9023 23.2155 21.3691C22.3751 20.768 21.3697 20.445 20.3389 20.445ZM18.6777 24.3331C18.6777 23.4125 19.419 22.6662 20.3333 22.6662H20.3444C21.2587 22.6662 22 23.4125 22 24.3331C22 25.2537 21.2587 26 20.3444 26H20.3333C19.419 26 18.6777 25.2537 18.6777 24.3331Z" fill="#023D67"/>
</svg>
